<?xml version="1.0" encoding="iso-8859-1"?>
<!-- Generator: Adobe Illustrator 19.1.0, SVG Export Plug-In . SVG Version: 6.00 Build 0)  -->
<svg version="1.1" id="Capa_1" xmlns="http://www.w3.org/2000/svg" xmlns:xlink="http://www.w3.org/1999/xlink" x="0px" y="0px"
	 viewBox="0 0 470.008 470.008" style="enable-background:new 0 0 470.008 470.008;" xml:space="preserve">
<g>
	<path style="fill:#F3F0E0;" d="M106.402,383.744c-19.646,0-35.628,15.982-35.628,35.628S86.757,455,106.402,455h269.164
		c-1.574-4.506-2.836-9.095-3.793-13.752H106.402c-4.142,0-7.5-3.358-7.5-7.5s3.358-7.5,7.5-7.5H369.78
		c-0.142-2.28-0.221-4.571-0.221-6.876s0.079-4.596,0.221-6.876H166.402c-4.142,0-7.5-3.358-7.5-7.5s3.358-7.5,7.5-7.5h205.371
		c0.957-4.657,2.219-9.246,3.793-13.752H106.402z M136.402,412.496h-30c-4.142,0-7.5-3.358-7.5-7.5s3.358-7.5,7.5-7.5h30
		c4.142,0,7.5,3.358,7.5,7.5S140.544,412.496,136.402,412.496z"/>
	<path style="fill:#A2839A;" d="M109.684,368.744V67.5c0-4.142,3.358-7.5,7.5-7.5V45c-4.142,0-7.5-3.358-7.5-7.5V15h-3.282
		c-19.646,0-35.628,15.982-35.628,35.628v332.808c9.155-9.077,21.748-14.691,35.628-14.691H109.684z"/>
	<path style="fill:#D7B0CD;" d="M117.184,60c4.142,0,7.5,3.358,7.5,7.5v301.244h193.942l80.607-80.607V95.607L318.627,15H124.684
		v22.5c0,4.142-3.358,7.5-7.5,7.5V60z M261.959,85c39.732,0,72.057,32.324,72.057,72.057c0,37.2-28.336,67.902-64.557,71.666v24.972
		h22.636c4.143,0,7.5,3.358,7.5,7.5s-3.357,7.5-7.5,7.5h-22.636v22.55c0,4.142-3.357,7.5-7.5,7.5c-4.143,0-7.5-3.358-7.5-7.5v-22.55
		h-22.636c-4.142,0-7.5-3.358-7.5-7.5s3.358-7.5,7.5-7.5h22.636v-24.972c-36.221-3.763-64.557-34.466-64.557-71.666
		C189.903,117.324,222.227,85,261.959,85z"/>
	<path style="fill:#D7B0CD;" d="M261.959,214.113c31.461,0,57.057-25.596,57.057-57.057S293.42,100,261.959,100
		s-57.057,25.596-57.057,57.057S230.498,214.113,261.959,214.113z"/>
	<polygon style="fill:#F3F0E0;" points="339.841,368.744 399.234,368.744 399.234,309.351 	"/>
	<polygon style="fill:#F3F0E0;" points="399.234,74.393 399.234,15 339.841,15 	"/>
	<path style="fill:#3E2C3A;" d="M136.402,397.496h-30c-4.142,0-7.5,3.358-7.5,7.5s3.358,7.5,7.5,7.5h30c4.142,0,7.5-3.358,7.5-7.5
		S140.544,397.496,136.402,397.496z"/>
	<path style="fill:#3E2C3A;" d="M414.234,7.5c0-4.142-3.357-7.5-7.5-7.5H106.402C78.486,0,55.774,22.711,55.774,50.628v368.744
		c0,27.917,22.711,50.628,50.628,50.628h280.225c0.037,0.001,0.074,0.008,0.111,0.008c0.048,0,0.096-0.007,0.144-0.008h19.852
		c4.143,0,7.5-3.358,7.5-7.5s-3.357-7.5-7.5-7.5h-15.12c-4.68-11.31-7.055-23.272-7.055-35.628c0-12.357,2.375-24.319,7.055-35.628
		h15.119c4.143,0,7.5-3.358,7.5-7.5V7.5z M371.773,397.496H166.402c-4.142,0-7.5,3.358-7.5,7.5s3.358,7.5,7.5,7.5H369.78
		c-0.142,2.28-0.221,4.571-0.221,6.876s0.079,4.596,0.221,6.876H106.402c-4.142,0-7.5,3.358-7.5,7.5s3.358,7.5,7.5,7.5h265.371
		c0.957,4.657,2.219,9.246,3.793,13.752H106.402c-19.646,0-35.628-15.982-35.628-35.628s15.982-35.628,35.628-35.628h269.164
		C373.992,388.25,372.73,392.839,371.773,397.496z M70.774,50.628C70.774,30.982,86.757,15,106.402,15h3.282v22.5
		c0,4.142,3.358,7.5,7.5,7.5c4.142,0,7.5-3.358,7.5-7.5V15h193.942l80.607,80.607v192.53l-80.607,80.607H124.684V67.5
		c0-4.142-3.358-7.5-7.5-7.5c-4.142,0-7.5,3.358-7.5,7.5v301.244h-3.282c-13.88,0-26.473,5.614-35.628,14.691V50.628z
		 M399.234,74.393L339.841,15h59.393V74.393z M339.841,368.744l59.393-59.393v59.393H339.841z"/>
	<path style="fill:#3E2C3A;" d="M254.459,228.722v24.972h-22.636c-4.142,0-7.5,3.358-7.5,7.5s3.358,7.5,7.5,7.5h22.636v22.55
		c0,4.142,3.357,7.5,7.5,7.5c4.143,0,7.5-3.358,7.5-7.5v-22.55h22.636c4.143,0,7.5-3.358,7.5-7.5s-3.357-7.5-7.5-7.5h-22.636
		v-24.972c36.221-3.763,64.557-34.466,64.557-71.666c0-39.732-32.324-72.057-72.057-72.057s-72.057,32.324-72.057,72.057
		C189.903,194.256,218.238,224.959,254.459,228.722z M261.959,100c31.461,0,57.057,25.596,57.057,57.057
		s-25.596,57.057-57.057,57.057s-57.057-25.596-57.057-57.057S230.498,100,261.959,100z"/>
</g>
<g>
</g>
<g>
</g>
<g>
</g>
<g>
</g>
<g>
</g>
<g>
</g>
<g>
</g>
<g>
</g>
<g>
</g>
<g>
</g>
<g>
</g>
<g>
</g>
<g>
</g>
<g>
</g>
<g>
</g>
</svg>
