<?xml version="1.0" encoding="iso-8859-1"?>
<!-- Generator: Adobe Illustrator 19.1.0, SVG Export Plug-In . SVG Version: 6.00 Build 0)  -->
<svg version="1.1" id="Capa_1" xmlns="http://www.w3.org/2000/svg" xmlns:xlink="http://www.w3.org/1999/xlink" x="0px" y="0px"
	 viewBox="0 0 470 470" style="enable-background:new 0 0 470 470;" xml:space="preserve">
<g>
	<path style="fill:#D5E6DA;" d="M45.004,425v15c4.141,0.002,7.496,3.358,7.496,7.5v7.5h365v-7.5c0-4.143,3.357-7.5,7.5-7.5
		c0.004,0,0.004-15,0.004-15C425,425,45.004,425,45.004,425z"/>
	<path style="fill:#FFFFFF;" d="M417.5,115h-44.166c-4.143,0-7.5-3.357-7.5-7.5h-15c0,4.143-3.357,7.5-7.5,7.5H52.5v295h365V115z
		 M307.842,260.346c-1.924,3.668-6.457,5.082-10.125,3.158c-0.116-0.061-0.223-0.132-0.335-0.198
		c-2.802,4.244-6.022,8.186-9.607,11.765c0.083,0.092,0.17,0.179,0.25,0.276c2.62,3.208,2.144,7.933-1.064,10.553
		c-8.675,7.085-18.76,12.343-29.458,15.394v13.415h17.89c4.143,0,7.5,3.357,7.5,7.5v30c0,4.143-3.357,7.5-7.5,7.5h-17.89V377.5
		c0,4.143-3.357,7.5-7.5,7.5h-30c-4.143,0-7.5-3.357-7.5-7.5v-17.791h-17.889c-4.143,0-7.5-3.357-7.5-7.5v-30
		c0-4.143,3.357-7.5,7.5-7.5h17.889v-13.411c-34.943-9.928-59.709-42.252-59.709-79.089c0-45.33,36.879-82.209,82.209-82.209
		s82.209,36.879,82.209,82.209C317.211,235.472,313.972,248.659,307.842,260.346z"/>
	<path style="fill:#FFFFFF;" d="M235.002,185c-20.518,0-37.21,16.692-37.21,37.209c0,20.518,16.692,37.21,37.21,37.21
		c20.517,0,37.209-16.692,37.209-37.21C272.211,201.692,255.519,185,235.002,185z"/>
	<path style="fill:#BC6190;" d="M373.334,100H417.5V45h-32.498v17.5c0,4.143-3.357,7.5-7.5,7.5s-7.5-3.357-7.5-7.5V45h-80v22.5
		c0,4.143-3.357,7.5-7.5,7.5s-7.5-3.357-7.5-7.5V45h-80v22.5c0,4.143-3.357,7.5-7.5,7.5s-7.5-3.357-7.5-7.5V45h-80v22.5
		c0,4.143-3.357,7.5-7.5,7.5s-7.5-3.357-7.5-7.5V45H52.5v55h290.834c4.143,0,7.5,3.357,7.5,7.5h15
		C365.834,103.357,369.191,100,373.334,100z"/>
	<path style="fill:#3E2C3A;" d="M417.5,447.5v7.5h-365v-7.5c0-4.141-3.355-7.498-7.496-7.5c-4.146,0-7.504,3.357-7.504,7.5v15
		c0,4.143,3.357,7.5,7.5,7.5h380c4.143,0,7.5-3.357,7.5-7.5v-15c0-4.141-3.355-7.498-7.496-7.5
		C420.857,440,417.5,443.357,417.5,447.5z"/>
	<path style="fill:#3E2C3A;" d="M425,30h-39.998V7.5c0-4.143-3.357-7.5-7.5-7.5s-7.5,3.357-7.5,7.5V30h-80V7.5
		c0-4.143-3.357-7.5-7.5-7.5s-7.5,3.357-7.5,7.5V30h-80V7.5c0-4.143-3.357-7.5-7.5-7.5s-7.5,3.357-7.5,7.5V30h-80V7.5
		c0-4.143-3.357-7.5-7.5-7.5s-7.5,3.357-7.5,7.5V30H45c-4.143,0-7.5,3.357-7.5,7.5v380c0,4.143,3.357,7.5,7.5,7.5h380
		c4.145-0.002,7.5-3.359,7.5-7.5v-380C432.5,33.357,429.143,30,425,30z M52.5,115h290.834c4.143,0,7.5-3.357,7.5-7.5
		s-3.357-7.5-7.5-7.5H52.5V45h32.502v22.5c0,4.143,3.357,7.5,7.5,7.5s7.5-3.357,7.5-7.5V45h80v22.5c0,4.143,3.357,7.5,7.5,7.5
		s7.5-3.357,7.5-7.5V45h80v22.5c0,4.143,3.357,7.5,7.5,7.5s7.5-3.357,7.5-7.5V45h80v17.5c0,4.143,3.357,7.5,7.5,7.5
		s7.5-3.357,7.5-7.5V45H417.5v55h-44.166c-4.143,0-7.5,3.357-7.5,7.5s3.357,7.5,7.5,7.5H417.5v295h-365V115z"/>
	<path style="fill:#D7B0CD;" d="M294.559,253.379c5.077-9.683,7.652-20.169,7.652-31.17c0-37.06-30.149-67.209-67.209-67.209
		s-67.209,30.149-67.209,67.209c0,31.814,22.587,59.51,53.707,65.854c3.493,0.712,6.002,3.784,6.002,7.349v26.798
		c0,4.143-3.357,7.5-7.5,7.5h-17.889v15h17.889c4.143,0,7.5,3.357,7.5,7.5V370h15v-17.791c0-4.143,3.357-7.5,7.5-7.5h17.89v-15
		h-17.89c-4.143,0-7.5-3.357-7.5-7.5v-26.798c0-3.564,2.509-6.637,6.002-7.349c10.545-2.149,20.562-6.914,28.968-13.779
		c3.111-2.542,7.642-2.162,10.303,0.788c3.585-3.579,6.805-7.521,9.607-11.765C293.969,261.287,292.696,256.931,294.559,253.379z
		 M235.002,274.419c-28.789,0-52.21-23.421-52.21-52.21c0-28.788,23.421-52.209,52.21-52.209c28.788,0,52.209,23.421,52.209,52.209
		C287.211,250.998,263.79,274.419,235.002,274.419z"/>
	<path style="fill:#3E2C3A;" d="M235.002,140c-45.33,0-82.209,36.879-82.209,82.209c0,36.837,24.766,69.161,59.709,79.089v13.411
		h-17.889c-4.143,0-7.5,3.357-7.5,7.5v30c0,4.143,3.357,7.5,7.5,7.5h17.889V377.5c0,4.143,3.357,7.5,7.5,7.5h30
		c4.143,0,7.5-3.357,7.5-7.5v-17.791h17.89c4.143,0,7.5-3.357,7.5-7.5v-30c0-4.143-3.357-7.5-7.5-7.5h-17.89v-13.415
		c10.698-3.051,20.783-8.309,29.458-15.394c3.208-2.62,3.685-7.345,1.064-10.553c-0.079-0.097-0.167-0.184-0.25-0.276
		c-2.66-2.95-7.192-3.33-10.303-0.788c-8.406,6.865-18.423,11.63-28.968,13.779c-3.493,0.712-6.002,3.784-6.002,7.349v26.798
		c0,4.143,3.357,7.5,7.5,7.5h17.89v15h-17.89c-4.143,0-7.5,3.357-7.5,7.5V370h-15v-17.791c0-4.143-3.357-7.5-7.5-7.5h-17.889v-15
		h17.889c4.143,0,7.5-3.357,7.5-7.5v-26.798c0-3.564-2.509-6.637-6.002-7.349c-31.12-6.344-53.707-34.039-53.707-65.854
		c0-37.06,30.149-67.209,67.209-67.209s67.209,30.149,67.209,67.209c0,11.001-2.575,21.487-7.652,31.17
		c-1.863,3.552-0.589,7.908,2.823,9.927c0.112,0.066,0.219,0.137,0.335,0.198c3.668,1.924,8.201,0.51,10.125-3.158
		c6.13-11.687,9.369-24.874,9.369-38.137C317.211,176.879,280.332,140,235.002,140z"/>
	<path style="fill:#3E2C3A;" d="M235.002,170c-28.789,0-52.21,23.421-52.21,52.209c0,28.789,23.421,52.21,52.21,52.21
		c28.788,0,52.209-23.421,52.209-52.21C287.211,193.421,263.79,170,235.002,170z M235.002,259.419
		c-20.518,0-37.21-16.692-37.21-37.21c0-20.517,16.692-37.209,37.21-37.209c20.517,0,37.209,16.692,37.209,37.209
		C272.211,242.727,255.519,259.419,235.002,259.419z"/>
</g>
<g>
</g>
<g>
</g>
<g>
</g>
<g>
</g>
<g>
</g>
<g>
</g>
<g>
</g>
<g>
</g>
<g>
</g>
<g>
</g>
<g>
</g>
<g>
</g>
<g>
</g>
<g>
</g>
<g>
</g>
</svg>
