<?xml version="1.0" encoding="iso-8859-1"?>
<!-- Generator: Adobe Illustrator 19.1.0, SVG Export Plug-In . SVG Version: 6.00 Build 0)  -->
<svg version="1.1" id="Capa_1" xmlns="http://www.w3.org/2000/svg" xmlns:xlink="http://www.w3.org/1999/xlink" x="0px" y="0px"
	 viewBox="0 0 470 470" style="enable-background:new 0 0 470 470;" xml:space="preserve">
<g>
	<path style="fill:#E8B9AC;" d="M124.09,440.347h260.702c15.089,0,27.365-12.139,27.365-27.059c0-14.921-12.276-27.06-27.365-27.06
		c-4.143,0-7.5-3.358-7.5-7.5s3.357-7.5,7.5-7.5h14.28c15.09,0,27.366-12.139,27.366-27.059c0-14.921-12.276-27.06-27.366-27.06
		h-14.28c-4.143,0-7.5-3.358-7.5-7.5s3.357-7.5,7.5-7.5h28.562c15.089,0,27.365-12.139,27.365-27.059
		c0-14.921-12.276-27.06-27.365-27.06h-28.562c-4.143,0-7.5-3.358-7.5-7.5s3.357-7.5,7.5-7.5h42.842
		c15.09,0,27.366-12.139,27.366-27.06c0-14.92-12.276-27.059-27.366-27.059l-120.876,0.002c-0.044,0-30.017,0-30.017,0
		c-4.142,0-7.5-3.358-7.5-7.5s3.357-7.5,7.5-7.5l25.895,0c20.598-33.017,31.905-76.087,31.905-121.815
		c0-14.921-12.276-27.06-27.365-27.06c-8.379,0-15.887,3.746-20.911,9.63c13.004,1.695,18.946,5.627,19.727,6.18
		c2.004,1.419,3.187,3.729,3.166,6.184c-0.029,3.414-0.153,14.789-0.555,17.831c-2.471,18.73-18.234,33.172-37.523,35.123
		c-19.616,51.89-70.141,88.924-129.232,88.924H124.09c-4.143,0-7.5-3.358-7.5-7.5c0-0.004-15.37-0.004-15.37-0.004
		c0.534,2.197,0.824,4.488,0.824,6.847c0,15.988-13.007,28.996-28.995,28.996c-15.768,0-28.628-12.654-28.979-28.339H15v261.475
		h29.069c0.352-15.685,13.212-28.338,28.979-28.338c15.988,0,28.995,13.007,28.995,28.996c0,2.358-0.29,4.648-0.823,6.845h15.369
		C116.59,443.705,119.947,440.347,124.09,440.347z M358.584,420.666c0,4.142-3.357,7.5-7.5,7.5s-7.5-3.358-7.5-7.5v-11.154
		c0-4.142,3.357-7.5,7.5-7.5s7.5,3.358,7.5,7.5V420.666z M358.584,350.901c0,4.142-3.357,7.5-7.5,7.5s-7.5-3.358-7.5-7.5v-11.154
		c0-4.142,3.357-7.5,7.5-7.5s7.5,3.358,7.5,7.5V350.901z M343.422,200.408c0-4.142,3.357-7.5,7.5-7.5s7.5,3.358,7.5,7.5v11.05
		c0,4.142-3.357,7.5-7.5,7.5s-7.5-3.358-7.5-7.5V200.408z M343.422,269.525c0-4.142,3.357-7.5,7.5-7.5s7.5,3.358,7.5,7.5v11.051
		c0,4.142-3.357,7.5-7.5,7.5s-7.5-3.358-7.5-7.5V269.525z M73.049,403.962c-15.988,0-28.996-13.007-28.996-28.996
		s13.008-28.996,28.996-28.996s28.995,13.007,28.995,28.996S89.037,403.962,73.049,403.962z M73.049,337.925
		c-15.988,0-28.996-13.007-28.996-28.996s13.008-28.996,28.996-28.996s28.995,13.007,28.995,28.996S89.037,337.925,73.049,337.925z
		 M73.049,271.887c-15.988,0-28.996-13.007-28.996-28.996s13.008-28.996,28.996-28.996s28.995,13.007,28.995,28.996
		S89.037,271.887,73.049,271.887z"/>
	<path style="fill:#BC6190;" d="M279.809,42.06c0,10.827-1.281,21.362-3.689,31.469c9.251-3.298,16.364-11.205,17.612-20.666
		c0.146-1.138,0.285-6.028,0.367-11.178c-2.78-0.967-7.379-2.136-14.12-2.612C279.87,40.055,279.809,41.05,279.809,42.06z"/>
	<path style="fill:#3E2C3A;" d="M470,205.932c0-23.191-19.006-42.059-42.366-42.059l-107.594,0.002
		c19.09-34.175,29.5-76.865,29.5-121.815C349.54,18.868,330.535,0,307.175,0c-18.577,0-34.389,11.937-40.09,28.487
		c-0.111,0.268-0.203,0.544-0.282,0.826c-1.292,4.023-1.994,8.304-1.994,12.746c0,67.168-55.16,121.813-122.961,121.813H124.09
		c-4.141,0-7.498,3.356-7.5,7.496c0,4.146,3.357,7.504,7.5,7.504h17.758c59.09,0,109.615-37.035,129.232-88.924
		c19.29-1.952,35.052-16.393,37.523-35.123c0.401-3.042,0.525-14.417,0.555-17.831c0.021-2.455-1.162-4.765-3.166-6.184
		c-0.781-0.553-6.723-4.485-19.727-6.18c5.024-5.884,12.531-9.63,20.911-9.63c15.089,0,27.365,12.139,27.365,27.06
		c0,45.728-11.307,88.798-31.905,121.815l-25.895,0c-4.143,0-7.5,3.358-7.5,7.5s3.358,7.5,7.5,7.5l29.973,0
		c0.044,0,120.921-0.002,120.921-0.002c15.09,0,27.366,12.139,27.366,27.059c0,14.921-12.276,27.06-27.366,27.06h-42.842
		c-4.143,0-7.5,3.358-7.5,7.5s3.357,7.5,7.5,7.5h28.562c15.089,0,27.365,12.139,27.365,27.06c0,14.92-12.276,27.059-27.365,27.059
		h-28.562c-4.143,0-7.5,3.358-7.5,7.5s3.357,7.5,7.5,7.5h14.28c15.09,0,27.366,12.139,27.366,27.06
		c0,14.92-12.276,27.059-27.366,27.059h-14.28c-4.143,0-7.5,3.358-7.5,7.5s3.357,7.5,7.5,7.5c15.089,0,27.365,12.139,27.365,27.06
		c0,14.92-12.276,27.059-27.365,27.059H124.09c-4.143,0-7.5,3.358-7.5,7.5c0.001,4.143,3.358,7.5,7.5,7.5h260.702
		c23.36,0,42.365-18.868,42.365-42.059c0-11.709-4.845-22.316-12.648-29.949c15.75-6.139,26.93-21.382,26.93-39.169
		c0-11.709-4.845-22.316-12.648-29.949c15.749-6.139,26.929-21.382,26.929-39.169c0-11.709-4.845-22.316-12.648-29.949
		C458.82,238.963,470,223.719,470,205.932z M293.731,52.863c-1.248,9.461-8.361,17.368-17.612,20.666
		c2.409-10.108,3.689-20.642,3.689-31.469c0-1.01,0.061-2.005,0.17-2.986c6.74,0.475,11.34,1.644,14.12,2.612
		C294.017,46.834,293.878,51.725,293.731,52.863z"/>
	<path style="fill:#3E2C3A;" d="M350.922,218.958c4.143,0,7.5-3.358,7.5-7.5v-11.05c0-4.142-3.357-7.5-7.5-7.5s-7.5,3.358-7.5,7.5
		v11.05C343.422,215.6,346.779,218.958,350.922,218.958z"/>
	<path style="fill:#3E2C3A;" d="M350.922,288.076c4.143,0,7.5-3.358,7.5-7.5v-11.051c0-4.142-3.357-7.5-7.5-7.5s-7.5,3.358-7.5,7.5
		v11.051C343.422,284.718,346.779,288.076,350.922,288.076z"/>
	<path style="fill:#3E2C3A;" d="M351.084,332.247c-4.143,0-7.5,3.358-7.5,7.5v11.154c0,4.142,3.357,7.5,7.5,7.5s7.5-3.358,7.5-7.5
		v-11.154C358.584,335.604,355.227,332.247,351.084,332.247z"/>
	<path style="fill:#3E2C3A;" d="M351.084,402.012c-4.143,0-7.5,3.358-7.5,7.5v11.154c0,4.142,3.357,7.5,7.5,7.5s7.5-3.358,7.5-7.5
		v-11.154C358.584,405.37,355.227,402.012,351.084,402.012z"/>
	<path style="fill:#F3F0E0;" d="M73.049,228.896c-7.718,0-13.996,6.278-13.996,13.996s6.278,13.996,13.996,13.996
		c7.717,0,13.995-6.278,13.995-13.996S80.766,228.896,73.049,228.896z"/>
	<path style="fill:#F3F0E0;" d="M59.053,178.216c0,7.717,6.278,13.996,13.996,13.996c7.717,0,13.995-6.278,13.995-13.996
		s-6.278-13.996-13.995-13.996C65.331,164.22,59.053,170.499,59.053,178.216z"/>
	<path style="fill:#F3F0E0;" d="M73.049,294.934c-7.718,0-13.996,6.278-13.996,13.996s6.278,13.996,13.996,13.996
		c7.717,0,13.995-6.278,13.995-13.996S80.766,294.934,73.049,294.934z"/>
	<path style="fill:#F3F0E0;" d="M73.049,360.971c-7.718,0-13.996,6.278-13.996,13.996s6.278,13.996,13.996,13.996
		c7.717,0,13.995-6.278,13.995-13.996S80.766,360.971,73.049,360.971z"/>
	<path style="fill:#F3F0E0;" d="M87.044,441.004c0-7.717-6.278-13.996-13.995-13.996c-7.718,0-13.996,6.278-13.996,13.996
		S65.331,455,73.049,455C80.766,455,87.044,448.722,87.044,441.004z"/>
	<path style="fill:#3E2C3A;" d="M73.049,213.896c-15.988,0-28.996,13.007-28.996,28.996s13.008,28.996,28.996,28.996
		s28.995-13.007,28.995-28.996S89.037,213.896,73.049,213.896z M73.049,256.887c-7.718,0-13.996-6.278-13.996-13.996
		s6.278-13.996,13.996-13.996c7.717,0,13.995,6.278,13.995,13.996S80.766,256.887,73.049,256.887z"/>
	<path style="fill:#3E2C3A;" d="M73.049,279.934c-15.988,0-28.996,13.007-28.996,28.996s13.008,28.996,28.996,28.996
		s28.995-13.007,28.995-28.996S89.037,279.934,73.049,279.934z M73.049,322.925c-7.718,0-13.996-6.278-13.996-13.996
		s6.278-13.996,13.996-13.996c7.717,0,13.995,6.278,13.995,13.996S80.766,322.925,73.049,322.925z"/>
	<path style="fill:#3E2C3A;" d="M73.049,345.971c-15.988,0-28.996,13.007-28.996,28.996s13.008,28.996,28.996,28.996
		s28.995-13.007,28.995-28.996S89.037,345.971,73.049,345.971z M73.049,388.962c-7.718,0-13.996-6.278-13.996-13.996
		s6.278-13.996,13.996-13.996c7.717,0,13.995,6.278,13.995,13.996S80.766,388.962,73.049,388.962z"/>
	<path style="fill:#3E2C3A;" d="M73.049,412.009c-15.768,0-28.628,12.653-28.979,28.338H15V178.873h29.069
		c0.352,15.685,13.211,28.339,28.979,28.339c15.988,0,28.995-13.007,28.995-28.996c0-2.359-0.29-4.65-0.824-6.847
		c-3.086-12.694-14.542-22.149-28.171-22.149c-10.772,0-20.185,5.909-25.184,14.652H7.5c-4.143,0-7.5,3.358-7.5,7.5v276.475
		c0,4.142,3.357,7.5,7.5,7.5h40.365C52.864,464.09,62.276,470,73.049,470c13.63,0,25.087-9.456,28.172-22.151
		c0.534-2.196,0.823-4.487,0.823-6.845C102.044,425.016,89.037,412.009,73.049,412.009z M73.049,455
		c-7.718,0-13.996-6.278-13.996-13.996s6.278-13.996,13.996-13.996c7.717,0,13.995,6.278,13.995,13.996S80.766,455,73.049,455z
		 M87.044,178.216c0,7.717-6.278,13.996-13.995,13.996c-7.718,0-13.996-6.278-13.996-13.996s6.278-13.996,13.996-13.996
		C80.766,164.22,87.044,170.499,87.044,178.216z"/>
</g>
<g>
</g>
<g>
</g>
<g>
</g>
<g>
</g>
<g>
</g>
<g>
</g>
<g>
</g>
<g>
</g>
<g>
</g>
<g>
</g>
<g>
</g>
<g>
</g>
<g>
</g>
<g>
</g>
<g>
</g>
</svg>
