<?xml version="1.0" encoding="iso-8859-1"?>
<!-- Generator: Adobe Illustrator 19.1.0, SVG Export Plug-In . SVG Version: 6.00 Build 0)  -->
<svg version="1.1" id="Capa_1" xmlns="http://www.w3.org/2000/svg" xmlns:xlink="http://www.w3.org/1999/xlink" x="0px" y="0px"
	 viewBox="0 0 470 470" style="enable-background:new 0 0 470 470;" xml:space="preserve">
<g>
	<path style="fill:#BC6190;" d="M333.635,219.781c33.562-39.465,50.58-76.479,50.58-110.013c0-52.255-42.513-94.768-94.768-94.768
		c-17.861,0-35.307,5.042-50.449,14.583c-2.443,1.539-5.554,1.539-7.995,0C215.857,20.042,198.411,15,180.551,15
		c-52.254,0-94.766,42.513-94.766,94.768c0,36.711,20.301,77.443,60.34,121.062c28.163,30.681,57.882,54.038,69.353,62.655
		l4.026,3.024c1.887,1.417,2.996,3.638,2.996,5.997v60.289c0,4.142-3.357,7.5-7.5,7.5h-52.4v25H215c4.143,0,7.5,3.358,7.5,7.5V455
		h25v-52.205c0-4.142,3.357-7.5,7.5-7.5h52.4v-25H255c-4.143,0-7.5-3.358-7.5-7.5v-60.292c0-2.359,1.109-4.58,2.996-5.997
		l4.023-3.022c9.424-7.08,34.058-26.315,59.191-51.95c2.886-2.944,7.602-3.001,10.562-0.144c1.711-1.802,3.421-3.63,5.125-5.487
		c1.719-1.872,3.389-3.738,5.037-5.602C331.331,227.61,330.968,222.917,333.635,219.781z M239.503,273.497
		c-1.334,1.002-2.92,1.503-4.505,1.503s-3.17-0.501-4.505-1.503c-19.99-15.018-119.709-93.492-119.709-163.729
		c0-38.47,31.298-69.768,69.768-69.768c21.358,0,41.332,9.812,54.448,26.206C248.116,49.812,268.09,40,289.448,40
		c38.47,0,69.767,31.297,69.767,69.768C359.215,180.011,259.493,258.479,239.503,273.497z"/>
	<path style="fill:#3E2C3A;" d="M289.448,40C268.09,40,248.116,49.812,235,66.206C221.884,49.812,201.91,40,180.552,40
		c-38.47,0-69.768,31.297-69.768,69.768c0,70.237,99.719,148.711,119.709,163.729c1.335,1.002,2.92,1.503,4.505,1.503
		s3.171-0.501,4.505-1.503c19.99-15.017,119.712-93.485,119.712-163.729C359.215,71.297,327.918,40,289.448,40z M175.593,203.781
		c-32.585-35.5-49.809-68.009-49.809-94.014c0-30.199,24.568-54.768,54.768-54.768c19.873,0,38.223,10.831,47.889,28.267
		c1.322,2.384,3.833,3.864,6.56,3.864s5.237-1.479,6.56-3.864C251.226,65.831,269.575,55,289.448,55
		c30.198,0,54.767,24.569,54.767,54.768c0,26.005-17.224,58.515-49.811,94.015c-22.991,25.048-47.747,45.231-59.406,54.278
		C223.339,249.012,198.583,228.827,175.593,203.781z"/>
	<path style="fill:#3E2C3A;" d="M289.447,0C270.308,0,251.582,4.997,235,14.489C218.416,4.997,199.689,0,180.551,0
		C120.025,0,70.785,49.242,70.785,109.768c0,40.587,21.63,84.731,64.289,131.206c29.007,31.601,59.591,55.637,71.395,64.505
		l1.031,0.774v49.042h-52.4c-4.143,0-7.5,3.358-7.5,7.5v40c0,4.142,3.357,7.5,7.5,7.5h52.4V462.5c0,4.142,3.357,7.5,7.5,7.5h40
		c4.143,0,7.5-3.358,7.5-7.5v-52.205h52.4c4.143,0,7.5-3.358,7.5-7.5v-40c0-4.142-3.357-7.5-7.5-7.5h-52.4V306.25l1.028-0.772
		c9.697-7.285,35.043-27.076,60.894-53.443c2.899-2.958,2.853-7.706-0.104-10.606c-0.014-0.014-0.03-0.025-0.044-0.039
		c-2.96-2.857-7.676-2.8-10.562,0.144c-25.134,25.635-49.768,44.871-59.191,51.95l-4.023,3.022
		c-1.887,1.417-2.996,3.638-2.996,5.997v60.292c0,4.142,3.357,7.5,7.5,7.5h52.4v25H255c-4.143,0-7.5,3.358-7.5,7.5V455h-25v-52.205
		c0-4.142-3.357-7.5-7.5-7.5h-52.4v-25H215c4.143,0,7.5-3.358,7.5-7.5v-60.289c0-2.359-1.109-4.58-2.996-5.997l-4.026-3.024
		c-11.471-8.618-41.189-31.974-69.353-62.655c-40.039-43.62-60.34-84.351-60.34-121.062C85.785,57.513,128.297,15,180.551,15
		c17.86,0,35.307,5.042,50.452,14.583c2.441,1.538,5.552,1.539,7.995,0C254.141,20.042,271.586,15,289.447,15
		c52.255,0,94.768,42.513,94.768,94.768c0,33.534-17.018,70.548-50.58,110.013c-2.667,3.136-2.303,7.829,0.8,10.521
		c0.019,0.017,0.035,0.035,0.054,0.051c3.156,2.685,7.889,2.301,10.571-0.854c35.935-42.254,54.154-82.537,54.154-119.731
		C399.215,49.242,349.974,0,289.447,0z"/>
</g>
<g>
</g>
<g>
</g>
<g>
</g>
<g>
</g>
<g>
</g>
<g>
</g>
<g>
</g>
<g>
</g>
<g>
</g>
<g>
</g>
<g>
</g>
<g>
</g>
<g>
</g>
<g>
</g>
<g>
</g>
</svg>
