<?xml version="1.0" encoding="iso-8859-1"?>
<!-- Generator: Adobe Illustrator 19.1.0, SVG Export Plug-In . SVG Version: 6.00 Build 0)  -->
<svg version="1.1" id="Capa_1" xmlns="http://www.w3.org/2000/svg" xmlns:xlink="http://www.w3.org/1999/xlink" x="0px" y="0px"
	 viewBox="0 0 470 470" style="enable-background:new 0 0 470 470;" xml:space="preserve">
<g>
	<path style="fill:#D7B0CD;" d="M343.758,243.908c18.755-22.985,29.74-51.539,31.334-81.114l-25.039,0
		C346.178,222.888,296.055,270.589,235,270.589c-61.056,0-111.179-47.701-115.054-107.794l-25.04,0
		c3.571,66.628,54.433,122.491,121.099,131.511c3.72,0.503,6.495,3.679,6.495,7.432v61.058c0,4.142-3.358,7.5-7.5,7.5h-52.4v25H215
		c4.142,0,7.5,3.358,7.5,7.5V455h25v-52.205c0-4.142,3.358-7.5,7.5-7.5h52.4v-25H255c-4.142,0-7.5-3.358-7.5-7.5v-61.058
		c0-3.753,2.775-6.929,6.495-7.432c25.509-3.452,49.583-13.914,69.618-30.257c3.161-2.578,7.787-2.146,10.428,0.933
		c3.727-3.367,7.279-6.922,10.646-10.648C341.61,251.692,341.18,247.068,343.758,243.908z"/>
	<path style="fill:#3E2C3A;" d="M388.098,149.991c-1.406-1.407-3.314-2.197-5.303-2.197l-40,0c-4.142,0-7.5,3.358-7.5,7.5
		c0,55.303-44.992,100.294-100.294,100.294s-100.295-44.992-100.295-100.294c0-4.142-3.358-7.5-7.5-7.5l-40,0
		c-1.989,0-3.897,0.79-5.303,2.197c-1.407,1.406-2.197,3.314-2.197,5.303c0,37.808,13.747,74.239,38.708,102.582
		c23.274,26.428,54.707,44.118,89.087,50.273v47.146h-52.4c-4.142,0-7.5,3.358-7.5,7.5v40c0,4.142,3.358,7.5,7.5,7.5h52.4V462.5
		c0,4.142,3.358,7.5,7.5,7.5h40c4.142,0,7.5-3.358,7.5-7.5v-52.205h52.4c4.142,0,7.5-3.358,7.5-7.5v-40c0-4.142-3.358-7.5-7.5-7.5
		h-52.4v-47.146c25.835-4.624,50.121-15.778,70.594-32.477c3.209-2.618,3.689-7.343,1.071-10.553
		c-0.04-0.049-0.084-0.091-0.125-0.138c-2.641-3.079-7.267-3.511-10.428-0.933c-20.035,16.343-44.109,26.805-69.618,30.257
		c-3.72,0.503-6.495,3.679-6.495,7.432v61.058c0,4.142,3.358,7.5,7.5,7.5h52.4v25H255c-4.142,0-7.5,3.358-7.5,7.5V455h-25v-52.205
		c0-4.142-3.358-7.5-7.5-7.5h-52.4v-25H215c4.142,0,7.5-3.358,7.5-7.5v-61.058c0-3.753-2.775-6.929-6.495-7.432
		c-66.666-9.02-117.528-64.883-121.099-131.511l25.04,0c3.875,60.093,53.998,107.794,115.054,107.794
		c61.055,0,111.178-47.701,115.053-107.794l25.039,0c-1.595,29.575-12.579,58.128-31.334,81.114
		c-2.578,3.16-2.148,7.784,0.928,10.425c0.048,0.042,0.091,0.087,0.141,0.127c3.209,2.618,7.933,2.141,10.553-1.069
		c22.515-27.593,34.915-62.431,34.915-98.097C390.294,153.305,389.504,151.397,388.098,149.991z"/>
	<path style="fill:#D5E6DA;" d="M196,77.794c4.142,0,7.5,3.358,7.5,7.5s-3.358,7.5-7.5,7.5h-31.295v20H196
		c4.142,0,7.5,3.358,7.5,7.5s-3.358,7.5-7.5,7.5h-31.295v20H196c4.142,0,7.5,3.358,7.5,7.5s-3.358,7.5-7.5,7.5h-30.89
		c3.756,35.247,33.663,62.794,69.89,62.794s66.134-27.548,69.89-62.794H274c-4.142,0-7.5-3.358-7.5-7.5s3.358-7.5,7.5-7.5h31.295
		v-20H274c-4.142,0-7.5-3.358-7.5-7.5s3.358-7.5,7.5-7.5h31.295v-20H274c-4.142,0-7.5-3.358-7.5-7.5s3.358-7.5,7.5-7.5h30.89
		C301.134,42.548,271.227,15,235,15s-66.134,27.548-69.89,62.794H196z"/>
	<path style="fill:#3E2C3A;" d="M235,240.589c47.032,0,85.295-38.263,85.295-85.294v-70C320.295,38.263,282.032,0,235,0
		s-85.295,38.263-85.295,85.294v70C149.705,202.327,187.968,240.589,235,240.589z M235,15c36.227,0,66.134,27.548,69.89,62.794H274
		c-4.142,0-7.5,3.358-7.5,7.5s3.358,7.5,7.5,7.5h31.295v20H274c-4.142,0-7.5,3.358-7.5,7.5s3.358,7.5,7.5,7.5h31.295v20H274
		c-4.142,0-7.5,3.358-7.5,7.5s3.358,7.5,7.5,7.5h30.89c-3.756,35.247-33.663,62.794-69.89,62.794s-66.134-27.548-69.89-62.794H196
		c4.142,0,7.5-3.358,7.5-7.5s-3.358-7.5-7.5-7.5h-31.295v-20H196c4.142,0,7.5-3.358,7.5-7.5s-3.358-7.5-7.5-7.5h-31.295v-20H196
		c4.142,0,7.5-3.358,7.5-7.5s-3.358-7.5-7.5-7.5h-30.89C168.866,42.548,198.773,15,235,15z"/>
</g>
<g>
</g>
<g>
</g>
<g>
</g>
<g>
</g>
<g>
</g>
<g>
</g>
<g>
</g>
<g>
</g>
<g>
</g>
<g>
</g>
<g>
</g>
<g>
</g>
<g>
</g>
<g>
</g>
<g>
</g>
</svg>
