<?xml version="1.0" encoding="iso-8859-1"?>
<!-- Generator: Adobe Illustrator 19.1.0, SVG Export Plug-In . SVG Version: 6.00 Build 0)  -->
<svg version="1.1" id="Capa_1" xmlns="http://www.w3.org/2000/svg" xmlns:xlink="http://www.w3.org/1999/xlink" x="0px" y="0px"
	 viewBox="0 0 480 480" style="enable-background:new 0 0 480 480;" xml:space="preserve">
<g>
	<path style="fill:#E8B9AC;" d="M387.094,133.386c-2.006-0.936-4.133-1.409-6.322-1.409c-5.811,0-11.151,3.4-13.605,8.663
		c-1.692,3.63-1.87,7.702-0.5,11.465c1.37,3.764,4.124,6.769,7.753,8.461c2.007,0.937,4.134,1.41,6.322,1.41
		c5.811,0,11.15-3.4,13.604-8.663C397.841,145.819,394.588,136.881,387.094,133.386z"/>
	<path style="fill:#E8B9AC;" d="M240,94.55c8.271,0,15-6.729,15-15s-6.729-15-15-15s-15,6.729-15,15S231.729,94.55,240,94.55z"/>
	<path style="fill:#E8B9AC;" d="M113.333,152.104c1.37-3.763,1.192-7.835-0.5-11.466c-2.454-5.262-7.794-8.662-13.605-8.662
		c-2.188,0-4.315,0.474-6.322,1.41c-7.493,3.494-10.747,12.433-7.252,19.926c2.454,5.263,7.794,8.663,13.605,8.663
		c2.188,0.001,4.315-0.474,6.322-1.41C109.209,158.873,111.963,155.868,113.333,152.104z"/>
	<path style="fill:#BC6190;" d="M233.956,126.807c0.03-0.041,0.065-0.076,0.096-0.115c0.116-0.151,0.237-0.297,0.364-0.438
		c0.061-0.068,0.121-0.136,0.184-0.202c0.143-0.149,0.294-0.29,0.449-0.427c0.048-0.042,0.093-0.088,0.142-0.129
		c0.209-0.175,0.427-0.338,0.654-0.49c0.033-0.022,0.069-0.041,0.102-0.062c0.195-0.126,0.396-0.243,0.604-0.351
		c0.065-0.034,0.132-0.063,0.197-0.095c0.182-0.088,0.366-0.169,0.556-0.242c0.075-0.029,0.151-0.056,0.227-0.083
		c0.186-0.065,0.376-0.122,0.568-0.172c0.079-0.021,0.157-0.043,0.236-0.061c0.2-0.045,0.403-0.08,0.609-0.109
		c0.073-0.01,0.144-0.025,0.218-0.033c0.276-0.031,0.555-0.05,0.839-0.05s0.563,0.019,0.839,0.05
		c0.073,0.008,0.145,0.023,0.218,0.033c0.206,0.029,0.409,0.064,0.609,0.109c0.079,0.018,0.157,0.04,0.236,0.061
		c0.193,0.05,0.382,0.107,0.568,0.172c0.076,0.027,0.151,0.054,0.227,0.083c0.189,0.073,0.374,0.154,0.556,0.242
		c0.066,0.032,0.133,0.061,0.197,0.095c0.207,0.108,0.408,0.225,0.604,0.351c0.034,0.022,0.069,0.04,0.102,0.062
		c0.227,0.151,0.445,0.315,0.654,0.49c0.049,0.041,0.094,0.087,0.142,0.129c0.155,0.137,0.306,0.278,0.449,0.427
		c0.063,0.066,0.123,0.134,0.184,0.202c0.127,0.142,0.248,0.287,0.364,0.438c0.031,0.04,0.066,0.075,0.096,0.115
		c4.296,5.848,11.202,9.338,18.472,9.338c4.846,0,9.489-1.512,13.426-4.372c10.155-7.379,12.458-21.676,5.134-31.871
		c-1.393-1.938-1.78-4.424-1.042-6.693c0.737-2.271,2.511-4.054,4.777-4.803c11.918-3.943,18.459-16.864,14.58-28.803
		c-3.075-9.463-11.82-15.821-21.761-15.821c-2.352,0-4.695,0.366-6.963,1.091c-2.275,0.722-4.757,0.325-6.688-1.078
		c-1.931-1.402-3.079-3.641-3.092-6.027C262.82,25.213,252.553,15,240,15s-22.82,10.213-22.887,22.767
		c-0.013,2.387-1.161,4.625-3.092,6.027c-1.931,1.402-4.415,1.801-6.688,1.078c-2.268-0.725-4.611-1.091-6.963-1.091
		c-9.941,0-18.686,6.358-21.761,15.821c-3.879,11.938,2.661,24.859,14.58,28.803c2.266,0.749,4.04,2.532,4.777,4.803
		c0.738,2.27,0.351,4.755-1.042,6.693c-7.324,10.195-5.021,24.492,5.134,31.871c3.937,2.86,8.58,4.372,13.427,4.372
		C222.755,136.145,229.659,132.654,233.956,126.807z M210,79.55c0-16.542,13.458-30,30-30s30,13.458,30,30s-13.458,30-30,30
		S210,96.092,210,79.55z"/>
	<path style="fill:#D7B0CD;" d="M425.019,129.353c-2.368-0.304-4.449-1.716-5.606-3.804c-1.157-2.087-1.251-4.601-0.254-6.77
		c5.244-11.405,0.255-25-11.122-30.306c-3.062-1.428-6.309-2.151-9.651-2.151c-8.816,0-16.946,5.147-20.712,13.112
		c-1.02,2.157-3.006,3.701-5.349,4.156c-2.344,0.456-4.762-0.232-6.517-1.85c-4.24-3.911-9.75-6.065-15.515-6.065
		c-6.421,0-12.368,2.584-16.744,7.277c-8.561,9.181-8.094,23.655,1.042,32.265c1.737,1.637,2.591,4.003,2.3,6.372
		c-0.291,2.369-1.692,4.458-3.773,5.626c-10.947,6.145-14.902,20.076-8.816,31.056c4.033,7.275,11.714,11.795,20.045,11.795
		c3.806,0,7.597-0.974,10.963-2.815c1.119-0.612,2.359-0.921,3.601-0.921c1.081,0,2.163,0.233,3.17,0.703
		c2.163,1.008,3.717,2.986,4.185,5.326c2.132,10.666,11.557,18.407,22.41,18.407c1.465,0,2.946-0.144,4.401-0.427
		c12.322-2.395,20.452-14.379,18.123-26.715c-0.443-2.345,0.257-4.762,1.885-6.507s3.987-2.609,6.359-2.334
		c0.898,0.105,1.808,0.159,2.705,0.159c11.523,0,21.274-8.642,22.681-20.101C446.356,142.384,437.47,130.949,425.019,129.353z
		 M407.942,159.652c-4.907,10.523-15.584,17.323-27.199,17.323c-4.395,0-8.655-0.946-12.661-2.814
		c-7.261-3.386-12.77-9.397-15.51-16.926s-2.385-15.674,1.001-22.935c4.907-10.524,15.584-17.324,27.2-17.324
		c4.395,0,8.654,0.946,12.661,2.814C408.423,126.782,414.931,144.664,407.942,159.652z"/>
	<path style="fill:#D7B0CD;" d="M117.939,187.026c0.252-0.117,0.508-0.216,0.765-0.303c0.065-0.022,0.13-0.037,0.195-0.057
		c0.206-0.063,0.411-0.119,0.619-0.164c0.072-0.015,0.143-0.027,0.215-0.04c0.206-0.038,0.413-0.068,0.619-0.089
		c0.07-0.007,0.14-0.013,0.211-0.018c0.216-0.015,0.43-0.02,0.645-0.017c0.061,0.001,0.122,0,0.183,0.002
		c0.252,0.01,0.503,0.032,0.751,0.068c0.022,0.003,0.044,0.004,0.067,0.007c0.275,0.042,0.546,0.099,0.814,0.171
		c0.052,0.014,0.102,0.033,0.154,0.048c0.208,0.061,0.414,0.128,0.616,0.206c0.081,0.031,0.161,0.067,0.241,0.101
		c0.177,0.076,0.351,0.157,0.521,0.246c0.044,0.023,0.091,0.04,0.135,0.064c3.365,1.842,7.156,2.815,10.964,2.815
		c8.332,0,16.011-4.52,20.044-11.795c6.086-10.979,2.131-24.911-8.816-31.056c-2.081-1.168-3.482-3.257-3.773-5.626
		c-0.291-2.369,0.563-4.735,2.3-6.372c9.135-8.609,9.603-23.084,1.041-32.265c-4.376-4.693-10.322-7.277-16.744-7.277
		c-5.765,0-11.275,2.154-15.515,6.065c-1.754,1.618-4.174,2.307-6.517,1.85c-2.343-0.455-4.329-1.999-5.349-4.156
		C98.56,91.47,90.43,86.322,81.614,86.322c-3.343,0-6.59,0.724-9.651,2.151c-11.377,5.306-16.366,18.9-11.122,30.306
		c0.997,2.169,0.903,4.683-0.254,6.77c-1.157,2.088-3.238,3.5-5.606,3.804c-12.451,1.597-21.337,13.031-19.807,25.49
		c1.407,11.459,11.158,20.101,22.681,20.101c0.896,0,1.807-0.054,2.705-0.159c0.292-0.034,0.584-0.051,0.875-0.051
		c2.067,0,4.058,0.854,5.484,2.385c1.628,1.745,2.328,4.162,1.885,6.507c-2.33,12.336,5.8,24.32,18.122,26.715
		c1.456,0.283,2.936,0.427,4.401,0.427c10.853,0,20.277-7.741,22.41-18.407c0.01-0.052,0.029-0.102,0.04-0.153
		c0.04-0.18,0.087-0.358,0.14-0.534c0.028-0.092,0.054-0.183,0.085-0.273c0.065-0.189,0.139-0.374,0.219-0.557
		c0.028-0.065,0.052-0.131,0.082-0.195c0.115-0.245,0.242-0.483,0.382-0.714c0.024-0.039,0.052-0.076,0.076-0.114
		c0.121-0.191,0.25-0.378,0.389-0.558c0.047-0.061,0.097-0.118,0.145-0.177c0.125-0.153,0.256-0.302,0.394-0.446
		c0.058-0.06,0.117-0.119,0.176-0.177c0.139-0.135,0.284-0.264,0.435-0.389c0.065-0.054,0.129-0.109,0.196-0.161
		c0.158-0.122,0.324-0.237,0.493-0.347c0.065-0.043,0.128-0.089,0.195-0.13C117.413,187.292,117.65,187.162,117.939,187.026z
		 M111.918,174.161c-4.006,1.867-8.266,2.814-12.66,2.814c-11.617,0-22.293-6.8-27.2-17.323c-6.99-14.988-0.481-32.87,14.508-39.86
		c4.007-1.869,8.267-2.815,12.662-2.815c11.616,0,22.292,6.8,27.2,17.323c3.386,7.262,3.741,15.407,1.001,22.936
		S119.18,170.775,111.918,174.161z"/>
	<path style="fill:#D5E6DA;" d="M218.844,409.384L240,454.754l99.051-212.415l-42.313,0l-32.338,69.348
		c-1.272,2.729-3.978,4.332-6.802,4.332c-1.061,0-2.139-0.227-3.164-0.705l-6.34,13.596c3.754,1.75,5.378,6.213,3.628,9.967
		L218.844,409.384z"/>
	<path style="fill:#FFFFFF;" d="M254.433,315.313c-3.754-1.75-5.378-6.213-3.627-9.967l29.382-63.008l-40.178,0
		c-0.019,0-99.06,0-99.06,0l69.619,149.299l27.559-59.101c1.751-3.754,6.213-5.378,9.967-3.627
		C248.094,328.909,254.434,315.314,254.433,315.313z"/>
	<path style="fill:#3E2C3A;" d="M270,79.55c0-16.542-13.458-30-30-30s-30,13.458-30,30s13.458,30,30,30S270,96.092,270,79.55z
		 M240,64.55c8.271,0,15,6.729,15,15s-6.729,15-15,15s-15-6.729-15-15S231.729,64.55,240,64.55z"/>
	<path style="fill:#3E2C3A;" d="M393.433,119.791c-4.007-1.868-8.267-2.814-12.661-2.814c-11.616,0-22.292,6.8-27.2,17.324
		c-3.386,7.261-3.741,15.406-1.001,22.935s8.249,13.54,15.51,16.926c4.006,1.868,8.266,2.814,12.661,2.814
		c11.615,0,22.292-6.8,27.199-17.323C414.931,144.664,408.423,126.782,393.433,119.791z M394.347,153.312
		c-2.454,5.263-7.794,8.663-13.604,8.663c-2.188,0-4.315-0.474-6.322-1.41c-3.63-1.692-6.383-4.697-7.753-8.461
		c-1.37-3.763-1.192-7.835,0.5-11.465c2.454-5.263,7.794-8.663,13.605-8.663c2.188,0,4.315,0.474,6.322,1.409
		C394.588,136.881,397.841,145.819,394.347,153.312z"/>
	<path style="fill:#3E2C3A;" d="M435.521,116.62c3.317-16.718-5.055-34.237-21.145-41.74c-5.062-2.36-10.442-3.558-15.991-3.558
		c-11.586,0-22.457,5.374-29.562,14.19c-5.614-3.153-11.973-4.837-18.531-4.837c-10.473,0-20.574,4.391-27.714,12.047
		c-12.108,12.985-13.308,32.364-3.969,46.623c-12.511,11.575-16.035,30.67-7.428,46.197c6.675,12.043,19.383,19.523,33.164,19.523
		c0.356,0,0.71-0.026,1.065-0.036l-10.402,22.308l-87.509,0V147.09c5.222,2.621,11.043,4.055,17.016,4.055
		c8.034,0,15.726-2.502,22.243-7.237c14.363-10.435,19.239-29.229,12.792-45.008c14.489-8.977,21.592-27.047,16.105-43.932
		c-5.089-15.663-19.567-26.187-36.027-26.187c-0.944,0-1.887,0.035-2.827,0.105C272.741,12.337,257.751,0,240,0
		s-32.741,12.337-36.802,28.887c-0.94-0.07-1.883-0.105-2.827-0.105c-16.46,0-30.938,10.523-36.027,26.187
		c-5.487,16.885,1.616,34.955,16.105,43.932c-6.446,15.778-1.571,34.573,12.792,45.008c6.516,4.734,14.207,7.237,22.242,7.237
		c5.975,0,11.795-1.433,17.016-4.055v80.248l-87.508,0l-10.402-22.308c0.355,0.01,0.709,0.036,1.065,0.036
		c13.782,0,26.489-7.481,33.165-19.523c8.607-15.527,5.083-34.622-7.428-46.197c9.339-14.258,8.139-33.638-3.969-46.623
		c-7.14-7.656-17.241-12.047-27.714-12.047c-6.559,0-12.917,1.684-18.531,4.837c-7.105-8.816-17.976-14.19-29.562-14.19
		c-5.549,0-10.93,1.197-15.991,3.558c-16.09,7.503-24.462,25.022-21.145,41.74c-15.936,6.046-26.356,22.43-24.193,40.051
		c2.147,17.49,16.046,31.015,33.164,33.017c0.829,17.021,13.189,31.99,30.614,35.377c2.396,0.466,4.839,0.702,7.263,0.702
		c11.845,0,22.646-5.575,29.657-14.419l7.478,16.035c-2.285,0.219-4.363,1.466-5.61,3.425c-1.377,2.161-1.555,4.876-0.472,7.199
		L233.202,475.67c1.232,2.642,3.883,4.33,6.797,4.33s5.565-1.688,6.797-4.33l110.824-237.661c1.083-2.323,0.905-5.038-0.472-7.199
		c-1.248-1.959-3.326-3.206-5.612-3.425l7.478-16.037c7.012,8.843,17.813,14.419,29.657,14.419c2.424,0,4.867-0.236,7.263-0.702
		c17.425-3.387,29.786-18.355,30.615-35.377c17.118-2.002,31.016-15.526,33.164-33.017
		C461.878,139.05,451.457,122.666,435.521,116.62z M215.485,136.145c-4.847,0-9.49-1.512-13.427-4.372
		c-10.155-7.379-12.458-21.676-5.134-31.871c1.393-1.938,1.78-4.424,1.042-6.693c-0.737-2.271-2.511-4.054-4.777-4.803
		c-11.918-3.943-18.459-16.864-14.58-28.803c3.075-9.463,11.82-15.821,21.761-15.821c2.352,0,4.695,0.366,6.963,1.091
		c2.273,0.723,4.757,0.324,6.688-1.078c1.931-1.402,3.079-3.641,3.092-6.027C217.18,25.213,227.447,15,240,15
		s22.82,10.213,22.887,22.767c0.013,2.387,1.161,4.625,3.092,6.027c1.931,1.403,4.413,1.8,6.688,1.078
		c2.268-0.725,4.611-1.091,6.963-1.091c9.941,0,18.686,6.358,21.761,15.821c3.879,11.938-2.661,24.859-14.58,28.803
		c-2.266,0.749-4.04,2.532-4.777,4.803c-0.738,2.27-0.351,4.755,1.042,6.693c7.324,10.195,5.021,24.492-5.134,31.871
		c-3.938,2.86-8.581,4.372-13.426,4.372c-7.27,0-14.175-3.49-18.472-9.338c-0.03-0.041-0.065-0.076-0.096-0.115
		c-0.116-0.151-0.237-0.297-0.364-0.438c-0.061-0.068-0.121-0.136-0.184-0.202c-0.143-0.149-0.294-0.29-0.449-0.427
		c-0.048-0.042-0.093-0.088-0.142-0.129c-0.209-0.175-0.427-0.338-0.654-0.49c-0.033-0.022-0.069-0.041-0.102-0.062
		c-0.195-0.126-0.396-0.243-0.604-0.351c-0.065-0.034-0.132-0.063-0.197-0.095c-0.182-0.088-0.366-0.169-0.556-0.242
		c-0.075-0.029-0.151-0.056-0.227-0.083c-0.186-0.065-0.376-0.122-0.568-0.172c-0.079-0.021-0.157-0.043-0.236-0.061
		c-0.2-0.045-0.403-0.08-0.609-0.109c-0.073-0.01-0.144-0.025-0.218-0.033c-0.276-0.031-0.555-0.05-0.839-0.05
		s-0.563,0.019-0.839,0.05c-0.073,0.008-0.145,0.023-0.218,0.033c-0.206,0.029-0.409,0.064-0.609,0.109
		c-0.079,0.018-0.157,0.04-0.236,0.061c-0.193,0.05-0.382,0.107-0.568,0.172c-0.076,0.027-0.151,0.054-0.227,0.083
		c-0.189,0.073-0.374,0.154-0.556,0.242c-0.066,0.032-0.133,0.061-0.197,0.095c-0.207,0.108-0.408,0.225-0.604,0.351
		c-0.034,0.022-0.069,0.04-0.102,0.062c-0.227,0.151-0.445,0.315-0.654,0.49c-0.049,0.041-0.094,0.087-0.142,0.129
		c-0.155,0.137-0.306,0.278-0.449,0.427c-0.063,0.066-0.123,0.134-0.184,0.202c-0.127,0.142-0.248,0.287-0.364,0.438
		c-0.031,0.04-0.066,0.075-0.096,0.115C229.659,132.654,222.755,136.145,215.485,136.145z M444.826,154.843
		c-1.407,11.459-11.158,20.101-22.681,20.101c-0.896,0-1.807-0.054-2.705-0.159c-2.372-0.275-4.731,0.589-6.359,2.334
		s-2.328,4.162-1.885,6.507c2.33,12.336-5.8,24.32-18.123,26.715c-1.455,0.283-2.936,0.427-4.401,0.427
		c-10.853,0-20.277-7.741-22.41-18.407c-0.468-2.34-2.022-4.318-4.185-5.326c-1.007-0.47-2.089-0.703-3.17-0.703
		c-1.242,0-2.481,0.309-3.601,0.921c-3.366,1.842-7.157,2.815-10.963,2.815c-8.331,0-16.012-4.52-20.045-11.795
		c-6.086-10.979-2.131-24.911,8.816-31.056c2.081-1.168,3.482-3.257,3.773-5.626c0.291-2.369-0.563-4.735-2.3-6.372
		c-9.135-8.609-9.602-23.084-1.042-32.265c4.376-4.693,10.323-7.277,16.744-7.277c5.765,0,11.275,2.154,15.515,6.065
		c1.754,1.617,4.172,2.306,6.517,1.85c2.343-0.455,4.329-1.999,5.349-4.156c3.766-7.965,11.896-13.112,20.712-13.112
		c3.343,0,6.59,0.724,9.651,2.151c11.377,5.306,16.366,18.9,11.122,30.306c-0.997,2.169-0.903,4.683,0.254,6.77
		c1.157,2.088,3.238,3.5,5.606,3.804C437.47,130.949,446.356,142.384,444.826,154.843z M248.094,328.909
		c-3.754-1.751-8.216-0.127-9.967,3.627l-27.559,59.101l-69.619-149.299l99.041,0c0.019,0,40.197,0,40.197,0l-29.382,63.008
		c-1.75,3.754-0.126,8.217,3.627,9.967c1.026,0.479,2.104,0.705,3.165,0.705c2.825,0,5.53-1.604,6.802-4.332l32.338-69.348l42.313,0
		L240,454.754l-21.156-45.37l32.878-70.508C253.472,335.122,251.848,330.659,248.094,328.909z M117.184,187.431
		c-0.067,0.041-0.13,0.087-0.195,0.13c-0.17,0.111-0.335,0.225-0.493,0.347c-0.067,0.052-0.131,0.107-0.196,0.161
		c-0.151,0.125-0.296,0.254-0.435,0.389c-0.06,0.058-0.119,0.117-0.176,0.177c-0.138,0.144-0.269,0.293-0.394,0.446
		c-0.049,0.059-0.098,0.117-0.145,0.177c-0.139,0.181-0.267,0.367-0.389,0.558c-0.025,0.039-0.052,0.075-0.076,0.114
		c-0.141,0.231-0.268,0.47-0.382,0.714c-0.03,0.064-0.054,0.13-0.082,0.195c-0.08,0.183-0.154,0.368-0.219,0.557
		c-0.031,0.09-0.057,0.182-0.085,0.273c-0.053,0.176-0.1,0.354-0.14,0.534c-0.012,0.052-0.03,0.101-0.04,0.153
		c-2.132,10.666-11.557,18.407-22.41,18.407c-1.465,0-2.946-0.144-4.401-0.427c-12.322-2.395-20.452-14.379-18.122-26.715
		c0.443-2.345-0.257-4.762-1.885-6.507c-1.427-1.53-3.417-2.385-5.484-2.385c-0.291,0-0.583,0.017-0.875,0.051
		c-0.898,0.105-1.808,0.159-2.705,0.159c-11.523,0-21.274-8.642-22.681-20.101c-1.53-12.459,7.356-23.894,19.807-25.49
		c2.368-0.304,4.449-1.716,5.606-3.804c1.157-2.087,1.251-4.601,0.254-6.77c-5.244-11.405-0.255-25,11.122-30.306
		c3.062-1.428,6.309-2.151,9.651-2.151c8.816,0,16.946,5.147,20.712,13.112c1.02,2.157,3.006,3.701,5.349,4.156
		c2.343,0.457,4.763-0.231,6.517-1.85c4.24-3.911,9.75-6.065,15.515-6.065c6.421,0,12.368,2.584,16.744,7.277
		c8.562,9.181,8.094,23.655-1.041,32.265c-1.737,1.637-2.591,4.003-2.3,6.372c0.291,2.369,1.692,4.458,3.773,5.626
		c10.947,6.145,14.902,20.076,8.816,31.056c-4.033,7.275-11.712,11.795-20.042,11.795c-3.81,0-7.601-0.974-10.966-2.815
		c-0.044-0.024-0.09-0.041-0.135-0.064c-0.171-0.089-0.345-0.171-0.521-0.246c-0.08-0.034-0.16-0.07-0.241-0.101
		c-0.202-0.078-0.408-0.146-0.616-0.206c-0.052-0.015-0.102-0.034-0.154-0.048c-0.268-0.072-0.539-0.129-0.814-0.171
		c-0.022-0.003-0.044-0.004-0.067-0.007c-0.249-0.036-0.499-0.058-0.751-0.068c-0.061-0.003-0.122-0.001-0.183-0.002
		c-0.215-0.004-0.429,0.001-0.645,0.017c-0.07,0.005-0.14,0.011-0.211,0.018c-0.207,0.02-0.413,0.05-0.619,0.089
		c-0.072,0.013-0.144,0.025-0.215,0.04c-0.207,0.045-0.413,0.101-0.619,0.164c-0.065,0.02-0.131,0.036-0.195,0.057
		c-0.258,0.087-0.513,0.186-0.765,0.303C117.65,187.162,117.413,187.292,117.184,187.431z"/>
	<path style="fill:#3E2C3A;" d="M127.428,157.235c2.74-7.528,2.385-15.674-1.001-22.936c-4.907-10.523-15.584-17.323-27.2-17.323
		c-4.395,0-8.654,0.946-12.662,2.815c-14.989,6.99-21.498,24.872-14.508,39.86c4.907,10.523,15.583,17.323,27.199,17.323
		c4.395,0,8.655-0.947,12.661-2.814C119.18,170.775,124.688,164.764,127.428,157.235z M99.258,161.976
		c-5.811,0-11.151-3.4-13.605-8.663c-3.494-7.493-0.241-16.432,7.252-19.926c2.007-0.937,4.134-1.41,6.322-1.41
		c5.811,0,11.151,3.4,13.605,8.662c1.692,3.631,1.87,7.703,0.5,11.466c-1.37,3.764-4.124,6.769-7.753,8.461
		C103.573,161.502,101.446,161.977,99.258,161.976z"/>
</g>
<g>
</g>
<g>
</g>
<g>
</g>
<g>
</g>
<g>
</g>
<g>
</g>
<g>
</g>
<g>
</g>
<g>
</g>
<g>
</g>
<g>
</g>
<g>
</g>
<g>
</g>
<g>
</g>
<g>
</g>
</svg>
