<?xml version="1.0" encoding="iso-8859-1"?>
<!-- Generator: Adobe Illustrator 19.1.0, SVG Export Plug-In . SVG Version: 6.00 Build 0)  -->
<svg version="1.1" id="Capa_1" xmlns="http://www.w3.org/2000/svg" xmlns:xlink="http://www.w3.org/1999/xlink" x="0px" y="0px"
	 viewBox="0 0 470 470" style="enable-background:new 0 0 470 470;" xml:space="preserve">
<g>
	<rect x="178.581" y="35.063" style="fill:#F3F0E0;" width="112.838" height="15"/>
	<path style="fill:#BC6190;" d="M264.817,188.775c-9.65,0-18.562,5.262-23.259,13.732c-1.322,2.384-3.834,3.863-6.56,3.863
		c-2.727,0-5.238-1.479-6.56-3.864c-4.695-8.47-13.607-13.732-23.259-13.732c-14.667,0-26.6,11.933-26.6,26.6
		c0,7.227,2.526,14.842,6.55,22.391h18.722c0-4.144,3.357-7.502,7.5-7.502h47.292c4.143,0,7.5,3.358,7.5,7.5
		c0,0.002,18.722,0.002,18.722,0.002c4.024-7.549,6.551-15.164,6.551-22.391C291.418,200.708,279.485,188.775,264.817,188.775z"/>
	<path style="fill:#8D496C;" d="M258.646,245.265h-47.292c-4.142,0-7.499-3.357-7.5-7.498h-18.722
		c12.333,23.137,38.76,45.656,49.867,54.499c11.107-8.842,37.536-31.362,49.869-54.499h-18.722
		C266.145,241.908,262.788,245.265,258.646,245.265z"/>
	<path style="fill:#D5E6DA;" d="M163.581,215.375c0-22.938,18.661-41.6,41.6-41.6c11.373,0,22.088,4.665,29.818,12.622
		c7.731-7.957,18.446-12.622,29.818-12.622c22.938,0,41.601,18.662,41.601,41.6c0,7.063-1.674,14.539-5.001,22.391h16.415
		c0-4.144,3.357-7.502,7.5-7.502h91.613c20.984,0,38.056-17.071,38.056-38.055v-90.208c0-3.825-3.112-6.938-6.938-6.938H21.938
		c-3.825,0-6.938,3.112-6.938,6.938v90.208c0,20.984,17.071,38.055,38.056,38.055h91.612c4.143,0,7.5,3.358,7.5,7.5
		c0,0.002,16.415,0.002,16.415,0.002C165.255,229.914,163.581,222.438,163.581,215.375z"/>
	<path style="fill:#B2C2B7;" d="M15,252.445v175.554c0,3.825,3.112,6.938,6.938,6.938h426.125c3.825,0,6.938-3.112,6.938-6.938
		V229.123c-9.649,9.944-23.138,16.141-38.056,16.141h-91.613c-4.142,0-7.499-3.357-7.5-7.498h-16.415
		c-4.891,11.542-13.354,23.896-25.333,36.946c-15.261,16.625-31.857,29.494-36.58,33.042c-1.334,1.002-2.92,1.503-4.505,1.503
		s-3.171-0.501-4.505-1.503c-4.723-3.548-21.318-16.417-36.579-33.043c-11.978-13.05-20.441-25.403-25.331-36.945h-16.415
		c-0.001,4.141-3.358,7.498-7.5,7.498H53.056c-19.336,0-36.282-10.401-45.556-25.898v25.578C11.643,244.945,15,248.303,15,252.445z"
		/>
	<path style="fill:#3E2C3A;" d="M211.354,245.265h47.292c4.142,0,7.499-3.357,7.5-7.498c0-4.144-3.357-7.502-7.5-7.502h-47.292
		c-4.143,0-7.5,3.358-7.5,7.5C203.854,241.908,207.211,245.265,211.354,245.265z"/>
	<path style="fill:#3E2C3A;" d="M448.062,80.063H306.419v-52.5c0-4.142-3.357-7.5-7.5-7.5H171.081c-4.143,0-7.5,3.358-7.5,7.5v52.5
		H21.938C9.841,80.063,0,89.905,0,102.001v90.208c0,9.919,2.743,19.207,7.5,27.157c9.273,15.497,26.22,25.898,45.556,25.898h91.612
		c4.142,0,7.499-3.357,7.5-7.498c0-4.144-3.357-7.502-7.5-7.502H53.056C32.071,230.265,15,213.193,15,192.209v-90.208
		c0-3.825,3.112-6.938,6.938-6.938h426.125c3.825,0,6.938,3.112,6.938,6.938v90.208c0,20.984-17.071,38.055-38.056,38.055h-91.613
		c-4.143,0-7.5,3.358-7.5,7.5c0.001,4.143,3.358,7.5,7.5,7.5h91.613c14.917,0,28.407-6.197,38.056-16.141v198.876
		c0,3.825-3.112,6.938-6.938,6.938H21.938c-3.825,0-6.938-3.112-6.938-6.938V252.445c0-4.142-3.357-7.5-7.5-7.5s-7.5,3.358-7.5,7.5
		v175.554c0,12.096,9.841,21.938,21.938,21.938h426.125c12.097,0,21.938-9.841,21.938-21.938V102.001
		C470,89.905,460.159,80.063,448.062,80.063z M291.419,50.063H178.581v-15h112.838V50.063z M178.581,65.063h112.838v15H178.581
		V65.063z"/>
	<path style="fill:#3E2C3A;" d="M264.817,173.775c-11.372,0-22.087,4.665-29.818,12.622c-7.73-7.957-18.445-12.622-29.818-12.622
		c-22.938,0-41.6,18.662-41.6,41.6c0,7.063,1.674,14.539,5.002,22.391c4.891,11.541,13.354,23.895,25.331,36.945
		c15.261,16.626,31.856,29.495,36.579,33.043c1.334,1.002,2.92,1.503,4.505,1.503s3.171-0.501,4.505-1.503
		c4.723-3.548,21.319-16.417,36.58-33.042c11.979-13.05,20.443-25.404,25.333-36.946c3.327-7.852,5.001-15.328,5.001-22.391
		C306.418,192.437,287.756,173.775,264.817,173.775z M284.867,237.766c-12.333,23.137-38.762,45.657-49.869,54.499
		c-11.107-8.842-37.534-31.362-49.867-54.499c-4.024-7.549-6.55-15.164-6.55-22.391c0-14.667,11.933-26.6,26.6-26.6
		c9.651,0,18.563,5.262,23.259,13.732c1.321,2.384,3.833,3.864,6.56,3.864c2.726,0,5.237-1.479,6.56-3.863
		c4.696-8.471,13.608-13.732,23.259-13.732c14.668,0,26.601,11.933,26.601,26.6C291.418,222.602,288.891,230.217,284.867,237.766z"
		/>
</g>
<g>
</g>
<g>
</g>
<g>
</g>
<g>
</g>
<g>
</g>
<g>
</g>
<g>
</g>
<g>
</g>
<g>
</g>
<g>
</g>
<g>
</g>
<g>
</g>
<g>
</g>
<g>
</g>
<g>
</g>
</svg>
