<?xml version="1.0" encoding="iso-8859-1"?>
<!-- Generator: Adobe Illustrator 19.1.0, SVG Export Plug-In . SVG Version: 6.00 Build 0)  -->
<svg version="1.1" id="Capa_1" xmlns="http://www.w3.org/2000/svg" xmlns:xlink="http://www.w3.org/1999/xlink" x="0px" y="0px"
	 viewBox="0 0 470 470" style="enable-background:new 0 0 470 470;" xml:space="preserve">
<g>
	<path style="fill:#D5E6DA;" d="M350.182,422.914c-0.137,0.131-0.275,0.261-0.421,0.381c-0.052,0.042-0.107,0.079-0.16,0.12
		c-0.141,0.11-0.282,0.219-0.431,0.319c-0.043,0.029-0.089,0.053-0.133,0.081c-0.163,0.104-0.327,0.206-0.498,0.298
		c-0.031,0.016-0.063,0.029-0.094,0.045c-0.186,0.096-0.375,0.188-0.57,0.269c-0.021,0.009-0.042,0.015-0.063,0.023
		c-0.205,0.083-0.413,0.16-0.626,0.224c-0.022,0.007-0.044,0.01-0.066,0.017c-0.211,0.062-0.425,0.118-0.643,0.162
		c-0.056,0.011-0.113,0.016-0.169,0.026c-0.185,0.032-0.369,0.065-0.558,0.083C345.501,424.987,345.251,425,345,425H45.004v15
		c4.141,0.002,7.496,3.358,7.496,7.5v7.5h365v-75.073c0-4.143,3.357-7.5,7.5-7.5c0.004,0,0.004-24.323,0.004-24.323l-74.7,74.7
		C350.265,422.843,350.222,422.876,350.182,422.914z"/>
	<path style="fill:#FFFFFF;" d="M337.5,337.5c0-4.143,3.357-7.5,7.5-7.5h72.5V115h-44.166c-4.143,0-7.5-3.357-7.5-7.5h-15
		c0,4.143-3.357,7.5-7.5,7.5H52.5v295h285V337.5z M296.709,350.557c-2.178,3.523-6.801,4.615-10.322,2.438
		c-0.126-0.078-0.242-0.166-0.362-0.25c-3.16,4-6.778,7.618-10.778,10.778c0.084,0.12,0.172,0.236,0.25,0.362
		c2.177,3.524,1.085,8.146-2.438,10.322C261.631,381.268,248.472,385,235.002,385c-39.977,0-72.5-32.523-72.5-72.5
		c0-18.774,7.202-36.58,20.003-50c-12.801-13.42-20.003-31.226-20.003-50c0-39.977,32.523-72.5,72.5-72.5s72.5,32.523,72.5,72.5
		c0,18.774-7.202,36.58-20.003,50c12.801,13.42,20.003,31.226,20.003,50C307.502,325.971,303.77,339.13,296.709,350.557z"/>
	<path style="fill:#FFFFFF;" d="M235.002,240c15.163,0,27.5-12.337,27.5-27.5s-12.337-27.5-27.5-27.5s-27.5,12.337-27.5,27.5
		S219.839,240,235.002,240z"/>
	<path style="fill:#FFFFFF;" d="M235.002,285c-15.163,0-27.5,12.337-27.5,27.5s12.337,27.5,27.5,27.5s27.5-12.337,27.5-27.5
		S250.165,285,235.002,285z"/>
	<path style="fill:#D7B0CD;" d="M283.949,342.672c5.595-9.056,8.553-19.488,8.553-30.172c0-17.137-7.569-33.26-20.768-44.233
		c-1.714-1.425-2.705-3.538-2.705-5.767s0.991-4.342,2.705-5.767c13.198-10.974,20.768-27.097,20.768-44.233
		c0-31.706-25.794-57.5-57.5-57.5s-57.5,25.794-57.5,57.5c0,17.137,7.569,33.26,20.768,44.233c1.714,1.425,2.705,3.538,2.705,5.767
		s-0.991,4.342-2.705,5.767c-13.198,10.974-20.768,27.097-20.768,44.233c0,31.706,25.794,57.5,57.5,57.5
		c10.683,0,21.115-2.958,30.172-8.554c3.397-2.098,7.808-1.152,10.073,2.076c4-3.16,7.618-6.777,10.778-10.778
		C282.796,350.481,281.849,346.069,283.949,342.672z M192.502,212.5c0-23.435,19.065-42.5,42.5-42.5s42.5,19.065,42.5,42.5
		s-19.065,42.5-42.5,42.5S192.502,235.935,192.502,212.5z M235.002,355c-23.435,0-42.5-19.065-42.5-42.5s19.065-42.5,42.5-42.5
		s42.5,19.065,42.5,42.5S258.437,355,235.002,355z"/>
	<path style="fill:#3E2C3A;" d="M307.502,212.5c0-39.977-32.523-72.5-72.5-72.5s-72.5,32.523-72.5,72.5
		c0,18.774,7.202,36.58,20.003,50c-12.801,13.42-20.003,31.226-20.003,50c0,39.977,32.523,72.5,72.5,72.5
		c13.47,0,26.629-3.732,38.057-10.793c3.523-2.177,4.615-6.798,2.438-10.322c-0.078-0.126-0.166-0.242-0.25-0.362
		c-2.265-3.228-6.676-4.174-10.073-2.076c-9.057,5.596-19.489,8.554-30.172,8.554c-31.706,0-57.5-25.794-57.5-57.5
		c0-17.137,7.569-33.26,20.768-44.233c1.714-1.425,2.705-3.538,2.705-5.767s-0.991-4.342-2.705-5.767
		c-13.198-10.974-20.768-27.097-20.768-44.233c0-31.706,25.794-57.5,57.5-57.5s57.5,25.794,57.5,57.5
		c0,17.137-7.569,33.26-20.768,44.233c-1.714,1.425-2.705,3.538-2.705,5.767s0.991,4.342,2.705,5.767
		c13.198,10.974,20.768,27.097,20.768,44.233c0,10.684-2.958,21.116-8.553,30.172c-2.1,3.397-1.153,7.809,2.076,10.073
		c0.12,0.084,0.236,0.172,0.362,0.25c3.521,2.178,8.145,1.086,10.322-2.438c7.061-11.427,10.793-24.586,10.793-38.057
		c0-18.774-7.202-36.58-20.003-50C300.3,249.08,307.502,231.274,307.502,212.5z"/>
	<path style="fill:#3E2C3A;" d="M235.002,270c-23.435,0-42.5,19.065-42.5,42.5s19.065,42.5,42.5,42.5s42.5-19.065,42.5-42.5
		S258.437,270,235.002,270z M235.002,340c-15.163,0-27.5-12.337-27.5-27.5s12.337-27.5,27.5-27.5s27.5,12.337,27.5,27.5
		S250.165,340,235.002,340z"/>
	<path style="fill:#3E2C3A;" d="M235.002,255c23.435,0,42.5-19.065,42.5-42.5s-19.065-42.5-42.5-42.5s-42.5,19.065-42.5,42.5
		S211.567,255,235.002,255z M235.002,185c15.163,0,27.5,12.337,27.5,27.5s-12.337,27.5-27.5,27.5s-27.5-12.337-27.5-27.5
		S219.839,185,235.002,185z"/>
	<path style="fill:#BC6190;" d="M373.334,100H417.5V45h-32.498v17.5c0,4.143-3.357,7.5-7.5,7.5s-7.5-3.357-7.5-7.5V45h-80v22.5
		c0,4.143-3.357,7.5-7.5,7.5s-7.5-3.357-7.5-7.5V45h-80v22.5c0,4.143-3.357,7.5-7.5,7.5s-7.5-3.357-7.5-7.5V45h-80v22.5
		c0,4.143-3.357,7.5-7.5,7.5s-7.5-3.357-7.5-7.5V45H52.5v55h290.834c4.143,0,7.5,3.357,7.5,7.5h15
		C365.834,103.357,369.191,100,373.334,100z"/>
	<polygon style="fill:#F3F0E0;" points="352.5,345 352.5,399.394 406.894,345 	"/>
	<path style="fill:#3E2C3A;" d="M417.5,379.927V455h-365v-7.5c0-4.141-3.355-7.498-7.496-7.5c-4.146,0-7.504,3.357-7.504,7.5v15
		c0,4.143,3.357,7.5,7.5,7.5h380c4.143,0,7.5-3.357,7.5-7.5v-82.573c0-4.141-3.355-7.498-7.496-7.5
		C420.857,372.427,417.5,375.784,417.5,379.927z"/>
	<path style="fill:#3E2C3A;" d="M425,30h-39.998V7.5c0-4.143-3.357-7.5-7.5-7.5s-7.5,3.357-7.5,7.5V30h-80V7.5
		c0-4.143-3.357-7.5-7.5-7.5s-7.5,3.357-7.5,7.5V30h-80V7.5c0-4.143-3.357-7.5-7.5-7.5s-7.5,3.357-7.5,7.5V30h-80V7.5
		c0-4.143-3.357-7.5-7.5-7.5s-7.5,3.357-7.5,7.5V30H45c-4.143,0-7.5,3.357-7.5,7.5v380c0,4.143,3.357,7.5,7.5,7.5h300
		c0.251,0,0.501-0.013,0.749-0.038c0.189-0.019,0.374-0.051,0.558-0.083c0.056-0.01,0.113-0.015,0.169-0.026
		c0.218-0.044,0.432-0.099,0.643-0.162c0.022-0.006,0.044-0.01,0.066-0.017c0.213-0.065,0.422-0.141,0.626-0.224
		c0.021-0.008,0.042-0.014,0.063-0.023c0.195-0.081,0.384-0.173,0.57-0.269c0.031-0.016,0.063-0.029,0.094-0.045
		c0.171-0.092,0.335-0.194,0.498-0.298c0.044-0.028,0.09-0.052,0.133-0.081c0.149-0.1,0.29-0.209,0.431-0.319
		c0.053-0.041,0.108-0.077,0.16-0.12c0.146-0.12,0.284-0.25,0.421-0.381c0.04-0.038,0.083-0.071,0.122-0.11l80-80
		c0.039-0.039,0.072-0.082,0.11-0.122c0.131-0.137,0.261-0.275,0.381-0.421c0.043-0.052,0.08-0.109,0.122-0.162
		c0.109-0.14,0.218-0.281,0.317-0.428c0.03-0.045,0.055-0.093,0.084-0.139c0.103-0.161,0.204-0.324,0.295-0.493
		c0.016-0.031,0.029-0.063,0.045-0.093c0.097-0.186,0.188-0.376,0.27-0.571c0.008-0.019,0.014-0.039,0.021-0.058
		c0.083-0.206,0.16-0.416,0.226-0.631c0.007-0.022,0.011-0.045,0.017-0.067c0.062-0.211,0.118-0.424,0.161-0.642
		c0.012-0.06,0.017-0.122,0.028-0.183c0.031-0.18,0.063-0.36,0.081-0.544c0.025-0.248,0.038-0.497,0.038-0.749v-300
		C432.5,33.357,429.143,30,425,30z M52.5,115h290.834c4.143,0,7.5-3.357,7.5-7.5s-3.357-7.5-7.5-7.5H52.5V45h32.502v22.5
		c0,4.143,3.357,7.5,7.5,7.5s7.5-3.357,7.5-7.5V45h80v22.5c0,4.143,3.357,7.5,7.5,7.5s7.5-3.357,7.5-7.5V45h80v22.5
		c0,4.143,3.357,7.5,7.5,7.5s7.5-3.357,7.5-7.5V45h80v17.5c0,4.143,3.357,7.5,7.5,7.5s7.5-3.357,7.5-7.5V45H417.5v55h-44.166
		c-4.143,0-7.5,3.357-7.5,7.5s3.357,7.5,7.5,7.5H417.5v215H345c-4.143,0-7.5,3.357-7.5,7.5V410h-285V115z M352.5,345h54.394
		L352.5,399.394V345z"/>
</g>
<g>
</g>
<g>
</g>
<g>
</g>
<g>
</g>
<g>
</g>
<g>
</g>
<g>
</g>
<g>
</g>
<g>
</g>
<g>
</g>
<g>
</g>
<g>
</g>
<g>
</g>
<g>
</g>
<g>
</g>
</svg>
