<?xml version="1.0" encoding="iso-8859-1"?>
<!-- Generator: Adobe Illustrator 19.1.0, SVG Export Plug-In . SVG Version: 6.00 Build 0)  -->
<svg version="1.1" id="Capa_1" xmlns="http://www.w3.org/2000/svg" xmlns:xlink="http://www.w3.org/1999/xlink" x="0px" y="0px"
	 viewBox="0 0 470 470" style="enable-background:new 0 0 470 470;" xml:space="preserve">
<g>
	<path style="fill:#BC6190;" d="M290.165,98.406c-0.091,0.252-0.194,0.503-0.314,0.75c-1.812,3.724-6.297,5.275-10.024,3.464
		c-3.137-1.526-6-3.411-8.589-5.564v60.573h53.738V97.056c-2.589,2.153-5.452,4.038-8.589,5.564
		c-1.056,0.514-2.174,0.757-3.274,0.757c-2.781,0-5.452-1.552-6.75-4.221c-0.12-0.247-0.223-0.497-0.314-0.749
		c-2.55,0.604-5.207,0.933-7.942,0.933C295.372,99.339,292.715,99.01,290.165,98.406z"/>
	<path style="fill:#8D496C;" d="M286.387,89.13c3.479,1.692,5.059,5.717,3.778,9.276c2.551,0.604,5.207,0.933,7.942,0.933
		c2.735,0,5.391-0.329,7.942-0.933c-1.281-3.559,0.299-7.584,3.778-9.276c9.344-4.545,15.148-13.802,15.148-24.159
		c0-17.631-13.255-38.066-26.868-48.394c-13.612,10.327-26.867,30.762-26.867,48.394C271.239,75.329,277.044,84.586,286.387,89.13z"
		/>
	<rect x="266.649" y="172.629" style="fill:#D5E6DA;" width="62.914" height="88.792"/>
	<rect x="257.5" y="276.42" style="fill:#D7B0CD;" width="81.213" height="178.58"/>
	<path style="fill:#D7B0CD;" d="M212.5,246.42h-81.213V455H212.5V246.42z M161.287,432.5c0,4.142-3.357,7.5-7.5,7.5
		s-7.5-3.358-7.5-7.5V328.92c0-4.142,3.357-7.5,7.5-7.5s7.5,3.358,7.5,7.5V432.5z M161.287,298.92c0,4.142-3.357,7.5-7.5,7.5
		s-7.5-3.358-7.5-7.5v-30c0-4.142,3.357-7.5,7.5-7.5s7.5,3.358,7.5,7.5V298.92z"/>
	<path style="fill:#3E2C3A;" d="M220,231.42h-96.213c-4.143,0-7.5,3.358-7.5,7.5V462.5c0,4.142,3.357,7.5,7.5,7.5H220
		c4.143,0,7.5-3.358,7.5-7.5V238.92C227.5,234.778,224.143,231.42,220,231.42z M131.287,246.42H212.5V455h-81.213V246.42z"/>
	<path style="fill:#FFFFFF;" d="M153.787,261.42c-4.143,0-7.5,3.358-7.5,7.5v30c0,4.142,3.357,7.5,7.5,7.5s7.5-3.358,7.5-7.5v-30
		C161.287,264.778,157.93,261.42,153.787,261.42z"/>
	<path style="fill:#FFFFFF;" d="M153.787,321.42c-4.143,0-7.5,3.358-7.5,7.5V432.5c0,4.142,3.357,7.5,7.5,7.5s7.5-3.358,7.5-7.5
		V328.92C161.287,324.778,157.93,321.42,153.787,321.42z"/>
	<path style="fill:#3E2C3A;" d="M346.213,261.42h-1.649v-96.292c0-3.109-1.892-5.776-4.588-6.913V64.968
		c-0.023-25.512-19.313-52.493-37.963-63.871c-2.398-1.463-5.414-1.463-7.812,0c-18.641,11.372-37.92,38.332-37.959,63.796
		c0,0.025-0.004,0.05-0.004,0.075v93.248c-2.696,1.137-4.588,3.804-4.588,6.913v96.292H250c-4.143,0-7.5,3.358-7.5,7.5V462.5
		c0,4.142,3.357,7.5,7.5,7.5h96.213c4.143,0,7.5-3.358,7.5-7.5V268.92C353.713,264.778,350.355,261.42,346.213,261.42z
		 M298.106,16.578c13.613,10.327,26.868,30.763,26.868,48.394c0,10.357-5.805,19.614-15.148,24.159
		c-3.479,1.692-5.059,5.717-3.778,9.276c0.091,0.252,0.194,0.503,0.314,0.749c1.298,2.668,3.969,4.221,6.75,4.221
		c1.101,0,2.219-0.243,3.274-0.757c3.137-1.526,6-3.411,8.589-5.564v60.573h-53.738V97.056c2.589,2.153,5.452,4.038,8.589,5.564
		c3.728,1.812,8.213,0.26,10.024-3.464c0.12-0.247,0.223-0.497,0.314-0.75c1.281-3.559-0.299-7.584-3.778-9.276
		c-9.343-4.544-15.147-13.802-15.147-24.159C271.239,47.34,284.494,26.905,298.106,16.578z M338.713,276.42V455H257.5V276.42
		H338.713z M266.649,172.629h62.914v88.792h-62.914V172.629z"/>
</g>
<g>
</g>
<g>
</g>
<g>
</g>
<g>
</g>
<g>
</g>
<g>
</g>
<g>
</g>
<g>
</g>
<g>
</g>
<g>
</g>
<g>
</g>
<g>
</g>
<g>
</g>
<g>
</g>
<g>
</g>
</svg>
