<?xml version="1.0" encoding="iso-8859-1"?>
<!-- Generator: Adobe Illustrator 19.1.0, SVG Export Plug-In . SVG Version: 6.00 Build 0)  -->
<svg version="1.1" id="Capa_1" xmlns="http://www.w3.org/2000/svg" xmlns:xlink="http://www.w3.org/1999/xlink" x="0px" y="0px"
	 viewBox="0 0 470 470" style="enable-background:new 0 0 470 470;" xml:space="preserve">
<g>
	<path style="fill:#D5E6DA;" d="M343.758,243.909c20.337-24.925,31.537-56.395,31.537-88.614C375.295,77.936,312.358,15,235,15
		S94.705,77.936,94.705,155.294c0,69.893,52.147,129.654,121.3,139.011c3.719,0.503,6.494,3.679,6.494,7.432v61.058
		c0,4.142-3.358,7.5-7.5,7.5h-52.4v25H215c4.142,0,7.5,3.358,7.5,7.5V455h25v-52.205c0-4.142,3.357-7.5,7.5-7.5h52.4v-25H255
		c-4.143,0-7.5-3.358-7.5-7.5v-61.058c0-3.753,2.774-6.929,6.494-7.432c25.51-3.452,49.583-13.914,69.618-30.256
		c3.16-2.579,7.787-2.147,10.427,0.933c3.727-3.367,7.28-6.922,10.647-10.649C341.61,251.691,341.18,247.068,343.758,243.909z
		 M222.5,261.221c0,2.232-0.994,4.349-2.713,5.773c-1.356,1.125-3.053,1.727-4.787,1.727c-0.462,0-0.927-0.042-1.389-0.129
		c-26.385-4.971-50.387-19.192-67.583-40.043c-1.356-1.645-1.948-3.788-1.629-5.895c0.319-2.107,1.52-3.979,3.302-5.148
		l63.186-41.445c2.305-1.511,5.253-1.638,7.677-0.328c2.425,1.309,3.937,3.843,3.937,6.599V261.221z M222.5,134.495
		c0,2.527-1.273,4.885-3.387,6.271l-82.516,54.124c-1.237,0.812-2.669,1.229-4.114,1.229c-0.836,0-1.676-0.14-2.484-0.423
		c-2.205-0.774-3.923-2.532-4.646-4.753c-3.748-11.501-5.647-23.495-5.647-35.647c0-55.397,39.493-103.046,93.906-113.297
		c2.195-0.414,4.458,0.172,6.176,1.597c1.719,1.425,2.713,3.541,2.713,5.773V134.495z M323.971,228.549
		c-17.195,20.851-41.197,35.072-67.583,40.042c-0.462,0.087-0.927,0.13-1.389,0.13c-1.733,0-3.431-0.602-4.787-1.727
		c-1.719-1.425-2.713-3.541-2.713-5.773v-78.889c0-2.756,1.512-5.29,3.937-6.599c2.426-1.31,5.372-1.184,7.677,0.328l63.186,41.445
		c1.782,1.169,2.983,3.041,3.302,5.148C325.92,224.761,325.328,226.904,323.971,228.549z M337.515,196.119
		c-1.443,0-2.876-0.417-4.113-1.229l-82.516-54.125c-2.113-1.387-3.387-3.744-3.387-6.271V49.368c0-2.232,0.994-4.349,2.713-5.773
		c1.718-1.425,3.979-2.013,6.176-1.597c54.413,10.251,93.906,57.9,93.906,113.297c0,12.154-1.9,24.148-5.648,35.648
		c-0.724,2.221-2.442,3.979-4.646,4.752C339.191,195.979,338.351,196.119,337.515,196.119z"/>
	<path style="fill:#3E2C3A;" d="M344.646,190.943c3.748-11.5,5.648-23.494,5.648-35.648c0-55.397-39.493-103.046-93.906-113.297
		c-2.196-0.416-4.458,0.172-6.176,1.597c-1.719,1.425-2.713,3.541-2.713,5.773v85.126c0,2.527,1.273,4.885,3.387,6.271
		l82.516,54.125c1.237,0.812,2.67,1.229,4.113,1.229c0.836,0,1.676-0.14,2.484-0.423
		C342.204,194.921,343.923,193.164,344.646,190.943z M332.994,176.683L262.5,130.444V58.833
		c42.681,12.135,72.795,51.344,72.795,96.461C335.295,162.522,334.523,169.683,332.994,176.683z"/>
	<path style="fill:#3E2C3A;" d="M219.787,43.594c-1.718-1.424-3.98-2.011-6.176-1.597c-54.413,10.251-93.906,57.9-93.906,113.297
		c0,12.153,1.9,24.146,5.647,35.647c0.724,2.221,2.442,3.979,4.646,4.753c0.808,0.284,1.648,0.423,2.484,0.423
		c1.444,0,2.876-0.417,4.114-1.229l82.516-54.124c2.114-1.386,3.387-3.744,3.387-6.271V49.368
		C222.5,47.135,221.506,45.019,219.787,43.594z M207.5,130.445l-70.494,46.238c-1.529-7.001-2.301-14.162-2.301-21.388
		c0-45.117,30.114-84.326,72.794-96.461V130.445z"/>
	<path style="fill:#3E2C3A;" d="M218.563,175.733c-2.424-1.31-5.372-1.184-7.677,0.328l-63.186,41.445
		c-1.782,1.169-2.983,3.041-3.302,5.148c-0.319,2.107,0.273,4.25,1.629,5.895c17.196,20.851,41.198,35.072,67.583,40.043
		c0.462,0.087,0.927,0.129,1.389,0.129c1.734,0,3.431-0.602,4.787-1.727c1.719-1.425,2.713-3.541,2.713-5.773v-78.889
		C222.5,179.576,220.989,177.042,218.563,175.733z M207.5,251.747c-16.743-4.79-32.043-13.937-44.281-26.48l44.281-29.045V251.747z"
		/>
	<path style="fill:#3E2C3A;" d="M322.299,217.505l-63.186-41.445c-2.305-1.511-5.251-1.637-7.677-0.328
		c-2.425,1.309-3.937,3.843-3.937,6.599v78.889c0,2.232,0.994,4.349,2.713,5.773c1.356,1.125,3.054,1.727,4.787,1.727
		c0.462,0,0.927-0.042,1.389-0.13c26.386-4.971,50.388-19.191,67.583-40.042c1.356-1.645,1.948-3.788,1.629-5.895
		C325.282,220.546,324.081,218.674,322.299,217.505z M262.5,251.747v-55.526l44.281,29.045
		C294.544,237.81,279.243,246.957,262.5,251.747z"/>
	<path style="fill:#3E2C3A;" d="M235,0C149.37,0,79.705,69.665,79.705,155.294c0,37.808,13.747,74.239,38.708,102.582
		c23.274,26.428,54.707,44.118,89.087,50.273v47.146h-52.4c-4.142,0-7.5,3.358-7.5,7.5v40c0,4.142,3.358,7.5,7.5,7.5h52.4V462.5
		c0,4.142,3.358,7.5,7.5,7.5h40c4.143,0,7.5-3.358,7.5-7.5v-52.205h52.4c4.143,0,7.5-3.358,7.5-7.5v-40c0-4.142-3.357-7.5-7.5-7.5
		h-52.4v-47.146c25.836-4.624,50.121-15.778,70.593-32.478c3.21-2.618,3.689-7.343,1.071-10.552
		c-0.04-0.049-0.084-0.091-0.125-0.138c-2.641-3.08-7.268-3.512-10.427-0.933c-20.035,16.342-44.108,26.805-69.618,30.256
		c-3.72,0.503-6.494,3.679-6.494,7.432v61.058c0,4.142,3.357,7.5,7.5,7.5h52.4v25H255c-4.143,0-7.5,3.358-7.5,7.5V455h-25v-52.205
		c0-4.142-3.358-7.5-7.5-7.5h-52.4v-25H215c4.142,0,7.5-3.358,7.5-7.5v-61.058c0-3.753-2.775-6.929-6.494-7.432
		c-69.153-9.356-121.3-69.118-121.3-139.011C94.705,77.936,157.641,15,235,15s140.295,62.936,140.295,140.294
		c0,32.219-11.2,63.689-31.537,88.614c-2.578,3.159-2.148,7.783,0.929,10.424c0.049,0.042,0.092,0.087,0.142,0.128
		c3.209,2.619,7.934,2.139,10.553-1.069c22.515-27.594,34.914-62.433,34.914-98.097C390.295,69.665,320.63,0,235,0z"/>
</g>
<g>
</g>
<g>
</g>
<g>
</g>
<g>
</g>
<g>
</g>
<g>
</g>
<g>
</g>
<g>
</g>
<g>
</g>
<g>
</g>
<g>
</g>
<g>
</g>
<g>
</g>
<g>
</g>
<g>
</g>
</svg>
