<?xml version="1.0" encoding="iso-8859-1"?>
<!-- Generator: Adobe Illustrator 19.1.0, SVG Export Plug-In . SVG Version: 6.00 Build 0)  -->
<svg version="1.1" id="Capa_1" xmlns="http://www.w3.org/2000/svg" xmlns:xlink="http://www.w3.org/1999/xlink" x="0px" y="0px"
	 viewBox="0 0 470 470" style="enable-background:new 0 0 470 470;" xml:space="preserve">
<g>
	<path style="fill:#7A6273;" d="M172.715,102.193c3.734-6,8.305-11.425,13.557-16.107c-0.08-0.1-0.165-0.195-0.241-0.3
		c-2.429-3.355-1.678-8.044,1.678-10.473C201.552,65.293,217.905,59.997,235,59.997c25.78,0,49.705,12.362,64.778,32.545
		c0.68-3.828,1.033-7.746,1.033-11.731C300.811,44.523,271.289,15,235,15c-36.289,0-65.812,29.523-65.812,65.812
		C169.188,88.224,170.391,95.408,172.715,102.193z"/>
	<path style="fill:#D7B0CD;" d="M173.689,284.858L68.566,414.602l46.098,37.349l110.685-136.605l-43.007-53.079l-9.758,12.043
		C175.802,276.917,176.297,281.639,173.689,284.858z"/>
	<path style="fill:#D7B0CD;" d="M297.844,131.625l-53.191,65.648l38.179,47.121l38.775-47.856
		c16.005-19.751,24.819-44.651,24.819-70.112c0-35.296-16.5-66.808-42.188-87.238c7.341,12.165,11.573,26.408,11.573,41.623
		C315.811,99.548,309.599,117.119,297.844,131.625z"/>
	<path style="fill:#A2839A;" d="M276.896,260.896l-47.724-58.9l-57.016-70.37c-11.755-14.506-17.968-32.078-17.968-50.814
		c0-15.215,4.232-29.458,11.573-41.623c-25.688,20.43-42.188,51.942-42.188,87.238c0,25.46,8.814,50.36,24.819,70.112
		l206.943,255.413l46.099-37.349l-124.33-153.449C277.033,261.069,276.964,260.983,276.896,260.896z"/>
	<path style="fill:#3E2C3A;" d="M417.81,410.986L292.485,256.309l40.776-50.327c18.162-22.414,28.165-50.667,28.165-79.556
		C361.427,56.715,304.712,0,235,0S108.573,56.715,108.573,126.426c0,28.888,10.002,57.141,28.165,79.556l45.604,56.284
		l43.007,53.079L114.664,451.951l-46.098-37.349l105.123-129.744c2.608-3.219,2.113-7.941-1.105-10.548
		c-3.219-2.608-7.942-2.113-10.549,1.105L52.19,410.986c-1.252,1.546-1.839,3.525-1.632,5.504c0.207,1.978,1.192,3.793,2.738,5.045
		l57.752,46.792c1.389,1.126,3.058,1.673,4.717,1.673c2.184,0,4.35-0.95,5.832-2.779l113.404-139.962l113.402,139.962
		c1.482,1.829,3.647,2.779,5.832,2.779c1.658,0,3.327-0.548,4.717-1.673l57.753-46.792c1.545-1.252,2.53-3.067,2.737-5.045
		C419.65,414.512,419.062,412.532,417.81,410.986z M355.336,451.951L148.393,196.539c-16.005-19.752-24.819-44.652-24.819-70.112
		c0-35.296,16.5-66.807,42.188-87.238c-7.341,12.165-11.573,26.408-11.573,41.623c0,18.736,6.213,36.308,17.968,50.814l57.016,70.37
		l47.724,58.9c0.067,0.087,0.137,0.173,0.208,0.257l124.33,153.449L355.336,451.951z M346.427,126.426
		c0,25.461-8.814,50.361-24.819,70.112l-38.775,47.856l-38.179-47.121l53.191-65.648c11.755-14.507,17.968-32.078,17.968-50.814
		c0-15.215-4.232-29.458-11.573-41.623C329.927,59.619,346.427,91.13,346.427,126.426z M235,15
		c36.289,0,65.812,29.523,65.812,65.812c0,3.985-0.353,7.903-1.033,11.731C284.705,72.359,260.78,59.997,235,59.997
		c-17.095,0-33.448,5.296-47.291,15.317c-3.355,2.429-4.107,7.118-1.678,10.473c0.076,0.105,0.16,0.2,0.241,0.3
		c2.486,3.093,6.982,3.731,10.232,1.378c11.269-8.156,24.58-12.468,38.496-12.468c24.726,0,47.352,13.976,58.583,35.875
		c-2.048,3.968-4.512,7.754-7.394,11.31L235,185.36l-51.189-63.178c-4.919-6.071-8.636-12.806-11.096-19.989
		c-2.324-6.785-3.527-13.969-3.527-21.382C169.188,44.523,198.711,15,235,15z"/>
</g>
<g>
</g>
<g>
</g>
<g>
</g>
<g>
</g>
<g>
</g>
<g>
</g>
<g>
</g>
<g>
</g>
<g>
</g>
<g>
</g>
<g>
</g>
<g>
</g>
<g>
</g>
<g>
</g>
<g>
</g>
</svg>
