<?xml version="1.0" encoding="iso-8859-1"?>
<!-- Generator: Adobe Illustrator 19.1.0, SVG Export Plug-In . SVG Version: 6.00 Build 0)  -->
<svg version="1.1" id="Capa_1" xmlns="http://www.w3.org/2000/svg" xmlns:xlink="http://www.w3.org/1999/xlink" x="0px" y="0px"
	 viewBox="0 0 470 470" style="enable-background:new 0 0 470 470;" xml:space="preserve">
<g>
	<path style="fill:#FFFFFF;" d="M338.1,207.298V15H131.9v192.298H338.1z M235,30c30.518,0,55.346,24.828,55.346,55.346
		c0,27.973-20.865,51.151-47.846,54.824v14.857h14.835c4.142,0,7.5,3.358,7.5,7.5s-3.358,7.5-7.5,7.5H242.5v14.771
		c0,4.142-3.358,7.5-7.5,7.5s-7.5-3.358-7.5-7.5v-14.771h-14.835c-4.142,0-7.5-3.358-7.5-7.5s3.358-7.5,7.5-7.5H227.5V140.17
		c-26.982-3.673-47.846-26.851-47.846-54.824C179.654,54.828,204.482,30,235,30z"/>
	<path style="fill:#FFFFFF;" d="M235,125.692c22.247,0,40.346-18.099,40.346-40.346S257.247,45,235,45s-40.346,18.099-40.346,40.346
		S212.753,125.692,235,125.692z"/>
	<path style="fill:#B2C2B7;" d="M41.487,370.395V455h375.538V346.197H33.99v16.698C38.131,362.896,41.487,366.253,41.487,370.395z"
		/>
	<path style="fill:#F3F0E0;" d="M94.4,141.808H30v145.984h410V141.808h-64.4c-4.142,0-7.499-3.357-7.5-7.498h-15v72.989h25.475
		c4.142,0,7.5,3.358,7.5,7.5s-3.358,7.5-7.5,7.5H91.425c-4.142,0-7.5-3.358-7.5-7.5s3.358-7.5,7.5-7.5H116.9v-72.989h-15
		C101.899,138.45,98.541,141.808,94.4,141.808z"/>
	<rect x="30" y="302.792" style="fill:#D5E6DA;" width="410" height="28.405"/>
	<path style="fill:#3E2C3A;" d="M91.425,207.298c-4.142,0-7.5,3.358-7.5,7.5s3.358,7.5,7.5,7.5h287.15c4.142,0,7.5-3.358,7.5-7.5
		s-3.358-7.5-7.5-7.5H353.1V7.5c0-4.142-3.358-7.5-7.5-7.5H124.4c-4.142,0-7.5,3.358-7.5,7.5v199.798H91.425z M338.1,15v192.298
		H131.9V15H338.1z"/>
	<path style="fill:#3E2C3A;" d="M447.5,126.808h-71.9c-4.142,0-7.5,3.358-7.5,7.5c0.001,4.143,3.358,7.5,7.5,7.5H440v145.984H30
		V141.808h64.4c4.142,0,7.499-3.357,7.5-7.498c0-4.144-3.358-7.502-7.5-7.502H22.5c-4.142,0-7.5,3.358-7.5,7.5v204.389
		c0,4.142,3.358,7.5,7.5,7.5h394.525V455H41.487v-84.605c0-4.141-3.357-7.498-7.497-7.5c-4.145,0-7.503,3.358-7.503,7.5V462.5
		c0,4.142,3.358,7.5,7.5,7.5h390.538c4.142,0,7.5-3.358,7.5-7.5V346.197H447.5c4.142,0,7.5-3.358,7.5-7.5V134.308
		C455,130.166,451.642,126.808,447.5,126.808z M30,331.197v-28.405h410v28.405H30z"/>
	<path style="fill:#3E2C3A;" d="M227.5,140.17v14.857h-14.835c-4.142,0-7.5,3.358-7.5,7.5s3.358,7.5,7.5,7.5H227.5v14.771
		c0,4.142,3.358,7.5,7.5,7.5s7.5-3.358,7.5-7.5v-14.771h14.835c4.142,0,7.5-3.358,7.5-7.5s-3.358-7.5-7.5-7.5H242.5V140.17
		c26.982-3.673,47.846-26.851,47.846-54.824C290.346,54.828,265.518,30,235,30s-55.346,24.828-55.346,55.346
		C179.654,113.319,200.518,136.497,227.5,140.17z M235,45c22.247,0,40.346,18.099,40.346,40.346S257.247,125.692,235,125.692
		s-40.346-18.099-40.346-40.346S212.753,45,235,45z"/>
</g>
<g>
</g>
<g>
</g>
<g>
</g>
<g>
</g>
<g>
</g>
<g>
</g>
<g>
</g>
<g>
</g>
<g>
</g>
<g>
</g>
<g>
</g>
<g>
</g>
<g>
</g>
<g>
</g>
<g>
</g>
</svg>
