<?xml version="1.0" encoding="iso-8859-1"?>
<!-- Generator: Adobe Illustrator 19.1.0, SVG Export Plug-In . SVG Version: 6.00 Build 0)  -->
<svg version="1.1" id="Capa_1" xmlns="http://www.w3.org/2000/svg" xmlns:xlink="http://www.w3.org/1999/xlink" x="0px" y="0px"
	 viewBox="0 0 470 470" style="enable-background:new 0 0 470 470;" xml:space="preserve">
<g>
	<path style="fill:#98AE9F;" d="M352.12,339.392C319.109,366.427,277.79,381.25,235,381.25s-84.109-14.823-117.12-41.858
		C85.323,370.381,65,414.111,65,462.5h340C405,414.111,384.677,370.381,352.12,339.392z"/>
	<path style="fill:#F6E3DE;" d="M340.625,329.396C311.597,306.312,274.883,292.5,235,292.5s-76.597,13.812-105.625,36.896
		C159.37,353.217,196.539,366.25,235,366.25S310.63,353.217,340.625,329.396z"/>
	<path style="fill:#C981A6;" d="M113.347,323.245C145.894,294.777,188.465,277.5,235,277.5c46.536,0,89.107,17.277,121.654,45.746
		c0.465,0.327,0.902,0.707,1.296,1.15c1.971,1.757,3.906,3.555,5.8,5.394v-22.397c-4.143,0-7.5-3.358-7.5-7.5V136.25
		C356.25,69.393,301.857,15,235,15S113.75,69.393,113.75,136.25v163.643c0,4.142-3.357,7.5-7.5,7.5v22.397
		c1.895-1.839,3.829-3.637,5.8-5.394C112.444,323.952,112.882,323.572,113.347,323.245z M187.669,52.451
		c2.173-1.23,4.813-1.298,7.049-0.181c2.233,1.117,3.764,3.271,4.084,5.748c5.206,40.324,39.846,70.732,80.573,70.732
		c13.999,0,27.805-3.622,39.924-10.475c2.175-1.229,4.816-1.295,7.048-0.178c2.232,1.117,3.763,3.272,4.082,5.748
		c0.545,4.228,0.821,8.401,0.821,12.405c0,53.072-43.178,96.25-96.25,96.25s-96.25-43.178-96.25-96.25
		C138.75,101.639,157.495,69.529,187.669,52.451z"/>
	<path style="fill:#F6E3DE;" d="M235,217.5c44.747,0,81.161-36.356,81.25-81.082c-11.633,4.818-24.189,7.332-36.875,7.332
		c-44.312,0-82.541-30.398-93.261-72.374c-20.188,15.243-32.364,39.247-32.364,64.874C153.75,181.051,190.198,217.5,235,217.5z"/>
	<path style="fill:#3E2C3A;" d="M235,232.5c53.072,0,96.25-43.178,96.25-96.25c0-4.003-0.276-8.177-0.821-12.405
		c-0.319-2.476-1.85-4.631-4.082-5.748c-2.231-1.117-4.873-1.051-7.048,0.178c-12.119,6.853-25.925,10.475-39.924,10.475
		c-40.728,0-75.367-30.408-80.573-70.732c-0.32-2.476-1.851-4.631-4.084-5.748c-2.235-1.117-4.876-1.049-7.049,0.181
		c-30.174,17.078-48.919,49.188-48.919,83.799C138.75,189.322,181.928,232.5,235,232.5z M186.114,71.376
		c10.72,41.976,48.949,72.374,93.261,72.374c12.686,0,25.242-2.514,36.875-7.332C316.161,181.144,279.747,217.5,235,217.5
		c-44.802,0-81.25-36.449-81.25-81.25C153.75,110.624,165.927,86.62,186.114,71.376z"/>
	<path style="fill:#3E2C3A;" d="M113.75,299.893V136.25C113.75,69.393,168.143,15,235,15s121.25,54.393,121.25,121.25v163.643
		c0,4.142,3.357,7.5,7.5,7.5s7.5-3.358,7.5-7.5V136.25C371.25,61.122,310.129,0,235,0S98.75,61.122,98.75,136.25v163.643
		c0,4.142,3.357,7.5,7.5,7.5S113.75,304.035,113.75,299.893z"/>
	<path style="fill:#3E2C3A;" d="M363.75,329.79c-1.895-1.839-3.829-3.637-5.8-5.394c-0.394-0.443-0.831-0.823-1.296-1.15
		C324.107,294.777,281.536,277.5,235,277.5c-46.535,0-89.106,17.277-121.653,45.745c-0.465,0.328-0.903,0.707-1.297,1.151
		c-1.972,1.757-3.906,3.555-5.8,5.394C71.582,363.433,50,410.49,50,462.5c0,4.142,3.357,7.5,7.5,7.5s7.5-3.358,7.5-7.5
		c0-48.389,20.323-92.119,52.88-123.108c33.01,27.035,74.329,41.858,117.12,41.858s84.109-14.823,117.12-41.858
		C384.677,370.381,405,414.111,405,462.5c0,4.142,3.357,7.5,7.5,7.5s7.5-3.358,7.5-7.5C420,410.49,398.418,363.433,363.75,329.79z
		 M235,292.5c39.883,0,76.597,13.812,105.625,36.896C310.63,353.217,273.461,366.25,235,366.25s-75.63-13.033-105.625-36.854
		C158.403,306.312,195.117,292.5,235,292.5z"/>
</g>
<g>
</g>
<g>
</g>
<g>
</g>
<g>
</g>
<g>
</g>
<g>
</g>
<g>
</g>
<g>
</g>
<g>
</g>
<g>
</g>
<g>
</g>
<g>
</g>
<g>
</g>
<g>
</g>
<g>
</g>
</svg>
